<svg xmlns="http://www.w3.org/2000/svg" viewBox="0 0 143.08 14.5"><defs><style>.cls-1{fill:#fff;}</style></defs><g id="Capa_2" data-name="Capa 2"><g id="Capa_1-2" data-name="Capa 1"><g id="Grupo_4727" data-name="Grupo 4727"><path id="Trazado_13628" data-name="Trazado 13628" class="cls-1" d="M6.75,14.42C2.5,14.42,0,11.24,0,7.28S2.5,0,6.75,0c2.88,0,5.32,1.6,5.87,4.49a.38.38,0,0,1-.3.44H10.06a.37.37,0,0,1-.36-.26A3,3,0,0,0,6.75,2.56C4,2.56,3,4.87,3,7.28s1,4.6,3.73,4.6A3,3,0,0,0,9.82,9.11a.38.38,0,0,1,.37-.31h2.2a.36.36,0,0,1,.36.36v.05A5.76,5.76,0,0,1,6.75,14.42Z"/><path id="Trazado_13629" data-name="Trazado 13629" class="cls-1" d="M41.44,13.73a.34.34,0,0,1-.35.36H38.63a.4.4,0,0,1-.32-.16l-5.6-9h0v8.84a.37.37,0,0,1-.37.36H30.21a.35.35,0,0,1-.37-.36h0V.72a.36.36,0,0,1,.37-.37h2.42A.37.37,0,0,1,33,.52l5.63,9.05h0V.72A.37.37,0,0,1,39,.35h2.1a.37.37,0,0,1,.37.36h0Z"/><path id="Trazado_13630" data-name="Trazado 13630" class="cls-1" d="M49.09,14.42c-2.93,0-5.68-1.39-5.84-4.51a.36.36,0,0,1,.34-.38h2.23a.36.36,0,0,1,.36.32c.16,1.6,1.5,2.22,3,2.22,1.06,0,2.67-.31,2.67-1.71s-2.06-1.74-4.07-2.28-4.1-1.32-4.1-3.9C43.71,1.37,46.36,0,48.84,0c2.76,0,5.29,1.15,5.5,4a.37.37,0,0,1-.35.38H51.75a.33.33,0,0,1-.35-.3c-.23-1.4-1.34-1.77-2.69-1.77-1,0-2.08.4-2.08,1.56s.65,1.2,4.1,2.08c1,.24,4.09.88,4.09,4C54.81,12.53,52.82,14.42,49.09,14.42Z"/><path id="Trazado_13631" data-name="Trazado 13631" class="cls-1" d="M66.78,2.52a.37.37,0,0,1-.36.37H63a.37.37,0,0,0-.37.36h0V13.73a.36.36,0,0,1-.36.36H60a.36.36,0,0,1-.37-.36h0V3.26a.38.38,0,0,0-.37-.37H55.89a.36.36,0,0,1-.37-.36h0V.72a.37.37,0,0,1,.36-.37H66.42a.37.37,0,0,1,.36.37Z"/><path id="Trazado_13632" data-name="Trazado 13632" class="cls-1" d="M88.06,14.42c-3.7,0-5.86-1.79-5.86-5.52V.71a.37.37,0,0,1,.37-.36h2.29a.36.36,0,0,1,.36.36V8.9c0,1.5.39,3,2.84,3,2.15,0,2.85-.94,2.85-3V.71a.36.36,0,0,1,.36-.36h2.29a.37.37,0,0,1,.37.36h0V8.9C93.92,12.61,91.73,14.42,88.06,14.42Z"/><path id="Trazado_13633" data-name="Trazado 13633" class="cls-1" d="M97.49,14.17H93.81l.77-.65a.43.43,0,0,1,.24-.08h2.75c2.59,0,5.52-1.42,5.52-6.2,0-5.66-3.63-6.16-5.69-6.16H94.3a.37.37,0,0,1-.37-.37h0a.37.37,0,0,1,.36-.37h3.24c5,0,6.41,3.39,6.41,6.9C103.94,11.15,102,14.17,97.49,14.17Z"/><path id="Trazado_13634" data-name="Trazado 13634" class="cls-1" d="M115,14.17h-8.7a.37.37,0,0,1-.36-.37h0V.71a.37.37,0,0,1,.36-.37h8.6a.38.38,0,0,1,.37.37.38.38,0,0,1-.37.37h-7.74a.36.36,0,0,0-.36.36h0v4.8a.36.36,0,0,0,.36.37h7.23a.37.37,0,0,1,.37.36h0a.36.36,0,0,1-.36.36h-7.24a.36.36,0,0,0-.36.37h0v5.34a.35.35,0,0,0,.36.37H115a.36.36,0,0,1,.36.36h0a.37.37,0,0,1-.35.38Z"/><path id="Trazado_13635" data-name="Trazado 13635" class="cls-1" d="M122.91,14.5c-4.15,0-6.6-3.19-6.6-7.24S118.76,0,122.91,0a5.29,5.29,0,0,1,5.49,4,.37.37,0,0,1-.27.45h-.2a.36.36,0,0,1-.35-.3A4.58,4.58,0,0,0,122.91.75c-3.63,0-5.75,3-5.75,6.5s2.11,6.51,5.75,6.51a5.2,5.2,0,0,0,4.93-4.64.36.36,0,0,1,.35-.34h.11a.37.37,0,0,1,.37.36.07.07,0,0,1,0,0A5.92,5.92,0,0,1,122.91,14.5Z"/><path id="Trazado_13636" data-name="Trazado 13636" class="cls-1" d="M136.49,0c-4.16,0-6.61,3.2-6.61,7.25s2.45,7.23,6.61,7.23,6.59-3.19,6.59-7.23S140.64,0,136.49,0Zm0,13.75c-3.63,0-5.75-3-5.75-6.5S132.86.75,136.49.75s5.73,3,5.73,6.51S140.11,13.76,136.49,13.76Z"/><path id="Trazado_13637" data-name="Trazado 13637" class="cls-1" d="M21,0c-4.25,0-6.76,3.17-6.76,7.26s2.51,7.14,6.76,7.14,6.76-3.18,6.76-7.14S25.28,0,21,0Zm0,11.86c-2.72,0-3.74-2.31-3.74-4.6s1-4.72,3.74-4.72,3.73,2.31,3.73,4.72S23.74,11.88,21,11.88Z"/><path id="Trazado_13638" data-name="Trazado 13638" class="cls-1" d="M79.62,10.84c-.1-1.39-.52-2.83-2-3.22v0A3.4,3.4,0,0,0,79.8,4.14,3.78,3.78,0,0,0,76,.34H68.73a.36.36,0,0,0-.37.36h0v13a.35.35,0,0,0,.37.36H71a.35.35,0,0,0,.37-.36h0V9.09a.38.38,0,0,1,.37-.37H74.4c1.53,0,2.08.64,2.3,2.08a19.42,19.42,0,0,0,.39,3,.35.35,0,0,0,.34.24h2.18a.36.36,0,0,0,.37-.36.5.5,0,0,0,0-.12A11.3,11.3,0,0,1,79.62,10.84ZM74.7,6.56h-3a.36.36,0,0,1-.36-.36V3.06a.36.36,0,0,1,.36-.36h3c1.34,0,2.07.57,2.07,1.9s-.73,2-2.07,2Z"/></g></g></g></svg>