<svg xmlns="http://www.w3.org/2000/svg" viewBox="0 0 140.17 25.18"><defs><style>.cls-1{fill:#fff;}</style></defs><g id="Capa_2" data-name="Capa 2"><g id="Capa_1-2" data-name="Capa 1"><g id="Grupo_4814" data-name="Grupo 4814"><g id="Grupo_4813" data-name="Grupo 4813"><g id="Grupo_4810" data-name="Grupo 4810"><path id="Trazado_13687" data-name="Trazado 13687" class="cls-1" d="M17.42,11.59A3.87,3.87,0,0,0,16,10.67a5.44,5.44,0,0,0-1.83-.3,5.45,5.45,0,0,0-2.75.62A4.54,4.54,0,0,0,9.7,12.84a.09.09,0,0,1-.1.05.09.09,0,0,1-.07-.09V10.37H6.17v14.8H9.7V16.9c0-2.29,1-3.45,3-3.45a2.53,2.53,0,0,1,1.93.63,3.46,3.46,0,0,1,.56,2.34v8.75h3.56v-10a5.35,5.35,0,0,0-.35-2.06A4.33,4.33,0,0,0,17.42,11.59Z"/><path id="Trazado_13688" data-name="Trazado 13688" class="cls-1" d="M27.1,9.26H24.8a.1.1,0,0,1-.1-.09h0a5.92,5.92,0,0,1,.1-1.1,1.62,1.62,0,0,1,.38-.75,1.51,1.51,0,0,1,.75-.41A5,5,0,0,1,27,6.79v-3c-3.9,0-5.79,1.79-5.79,5.39a.09.09,0,0,1-.09.09h-2v2.62h2a.09.09,0,0,1,.1.09h0v13.2H24.7V12a.09.09,0,0,1,.09-.09H27.1Z"/><path id="Trazado_13689" data-name="Trazado 13689" class="cls-1" d="M40.68,14.7a6.53,6.53,0,0,0-1.41-2.32,6.23,6.23,0,0,0-2.21-1.48,7.58,7.58,0,0,0-2.94-.53,7.78,7.78,0,0,0-3,.53,6.27,6.27,0,0,0-2.24,1.5,6.54,6.54,0,0,0-1.42,2.34,8.92,8.92,0,0,0-.5,3,9,9,0,0,0,.48,3,6.24,6.24,0,0,0,3.64,3.85,8.54,8.54,0,0,0,5.95,0,6.11,6.11,0,0,0,2.22-1.5,6.53,6.53,0,0,0,1.41-2.32,8.57,8.57,0,0,0,.5-3.05A8.71,8.71,0,0,0,40.68,14.7Zm-6.56,7.49c-2.32,0-3.5-1.49-3.5-4.42s1.18-4.4,3.5-4.4,3.5,1.48,3.5,4.4-1.18,4.42-3.5,4.42Z"/><rect id="Rectángulo_1869" data-name="Rectángulo 1869" class="cls-1" y="3.65" width="3.53" height="21.51"/></g><g id="Grupo_4812" data-name="Grupo 4812"><g id="Grupo_4811" data-name="Grupo 4811"><path id="Trazado_13690" data-name="Trazado 13690" class="cls-1" d="M92.31,25.16a6.32,6.32,0,0,0,2.47-.44,4.42,4.42,0,0,0,1.71-1.18.12.12,0,0,1,.1,0,.1.1,0,0,1,.07.08,11.38,11.38,0,0,0,.2,1.54h3.3V15.88a8.23,8.23,0,0,0-.31-2.36,4,4,0,0,0-1-1.72A4.35,4.35,0,0,0,97,10.74a8.78,8.78,0,0,0-2.79-.37,9.35,9.35,0,0,0-2.83.35,4.76,4.76,0,0,0-1.86,1,3.73,3.73,0,0,0-1,1.55,6.51,6.51,0,0,0-.35,1.91h3.29a2.8,2.8,0,0,1,.71-1.5,2.57,2.57,0,0,1,1.91-.61,3.43,3.43,0,0,1,1.78.4A1.41,1.41,0,0,1,96,15.79a4.77,4.77,0,0,1-1.92.55c-.93.14-1.8.29-2.58.45a6.66,6.66,0,0,0-2,.75,3.6,3.6,0,0,0-1.31,1.4,5.24,5.24,0,0,0-.48,2.4,3.72,3.72,0,0,0,1.1,2.76A4.92,4.92,0,0,0,92.31,25.16Zm-.44-5.67a5.39,5.39,0,0,1,2.25-.83c.52-.1,1-.22,1.56-.37a2.2,2.2,0,0,0,.79-.44.08.08,0,0,1,.1,0,.08.08,0,0,1,.06.08l0,1.56a2.74,2.74,0,0,1-.28,1.23,3.35,3.35,0,0,1-1.82,1.7,3.78,3.78,0,0,1-1.37.25c-1.25,0-1.89-.56-1.89-1.68a1.83,1.83,0,0,1,.63-1.48Z"/><path id="Trazado_13691" data-name="Trazado 13691" class="cls-1" d="M57.23,5.84a7.65,7.65,0,0,0-2.46-1.53,8.88,8.88,0,0,0-3.18-.56A8.62,8.62,0,0,0,48,4.51,7.6,7.6,0,0,0,45.2,6.66a9.9,9.9,0,0,0-1.74,3.44,15.78,15.78,0,0,0-.61,4.59,14.05,14.05,0,0,0,.66,4.55,9.6,9.6,0,0,0,1.83,3.27,7.35,7.35,0,0,0,2.75,2,9,9,0,0,0,3.44.66,8.05,8.05,0,0,0,3-.54,7.35,7.35,0,0,0,2.39-1.53,8.73,8.73,0,0,0,1.71-2.38,12.37,12.37,0,0,0,1-3H55.81a5.53,5.53,0,0,1-1.48,2.91,4.09,4.09,0,0,1-2.91,1.05,3.94,3.94,0,0,1-3.55-1.92,10.08,10.08,0,0,1-1.17-5.3,9.94,9.94,0,0,1,1.18-5.27,4.08,4.08,0,0,1,3.74-1.95,4,4,0,0,1,2.63,1,4.84,4.84,0,0,1,1.56,2.67h3.8a8.46,8.46,0,0,0-.74-2.73A7.37,7.37,0,0,0,57.23,5.84Z"/><path id="Trazado_13692" data-name="Trazado 13692" class="cls-1" d="M64.91,25.16a6.37,6.37,0,0,0,2.48-.44,4.5,4.5,0,0,0,1.71-1.18.11.11,0,0,1,.1,0,.09.09,0,0,1,.06.08,10,10,0,0,0,.21,1.54h3.3V15.88a8.6,8.6,0,0,0-.31-2.36,4.09,4.09,0,0,0-1-1.72,4.29,4.29,0,0,0-1.82-1.06,8.72,8.72,0,0,0-2.78-.37,9.31,9.31,0,0,0-2.83.35,4.8,4.8,0,0,0-1.87,1,3.77,3.77,0,0,0-1,1.55,6.2,6.2,0,0,0-.35,1.91h3.28a2.8,2.8,0,0,1,.71-1.5,2.58,2.58,0,0,1,1.92-.61,3.45,3.45,0,0,1,1.78.4,1.42,1.42,0,0,1,.16,2.31,4.87,4.87,0,0,1-1.93.55c-.93.14-1.8.29-2.58.45a6.66,6.66,0,0,0-2,.75,3.67,3.67,0,0,0-1.31,1.4,5.11,5.11,0,0,0-.47,2.4,3.65,3.65,0,0,0,1.1,2.76A4.88,4.88,0,0,0,64.91,25.16Zm-.43-5.67a5.29,5.29,0,0,1,2.24-.83c.53-.1,1-.22,1.56-.37a2,2,0,0,0,.79-.44.08.08,0,0,1,.1,0,.08.08,0,0,1,.06.08l0,1.56a2.74,2.74,0,0,1-.28,1.23,3.48,3.48,0,0,1-.73,1,3.36,3.36,0,0,1-1.09.69,3.72,3.72,0,0,1-1.36.25c-1.26,0-1.9-.56-1.9-1.68a1.83,1.83,0,0,1,.64-1.48Z"/><path id="Trazado_13693" data-name="Trazado 13693" class="cls-1" d="M74.1,20.4a4.44,4.44,0,0,0,1.75,3.4,7.72,7.72,0,0,0,4.93,1.36,7.15,7.15,0,0,0,4.53-1.22,4.12,4.12,0,0,0,1.52-3.4,3.51,3.51,0,0,0-.58-2.13,4,4,0,0,0-1.68-1.23,17.39,17.39,0,0,0-1.9-.58c-.71-.18-1.48-.39-2.29-.63a7.72,7.72,0,0,1-1.73-.66,1.14,1.14,0,0,1-.62-1,1,1,0,0,1,.62-1A4,4,0,0,1,80.32,13a3.48,3.48,0,0,1,2,.43A2.06,2.06,0,0,1,83,14.88h3.4a4.57,4.57,0,0,0-1.55-3.35,7,7,0,0,0-4.44-1.16,10.23,10.23,0,0,0-2.7.31,5.23,5.23,0,0,0-1.81.87,3.07,3.07,0,0,0-1,1.31,4.19,4.19,0,0,0-.31,1.64A4,4,0,0,0,75,16.23a3.55,3.55,0,0,0,1.36,1.41,7.4,7.4,0,0,0,1.81.82c.71.23,1.67.5,2.85.78a9.2,9.2,0,0,1,1.6.56A1.17,1.17,0,0,1,83.33,21a1.23,1.23,0,0,1-.8,1.22,4.34,4.34,0,0,1-1.78.34,3.8,3.8,0,0,1-2.2-.57,1.87,1.87,0,0,1-.81-1.54Z"/><path id="Trazado_13694" data-name="Trazado 13694" class="cls-1" d="M103.24,23.79a7.73,7.73,0,0,0,4.93,1.37,7.21,7.21,0,0,0,4.53-1.22,4.11,4.11,0,0,0,1.52-3.4,3.44,3.44,0,0,0-.58-2.13A4,4,0,0,0,112,17.18a17.43,17.43,0,0,0-1.9-.59c-.71-.18-1.48-.39-2.29-.62a7.72,7.72,0,0,1-1.73-.66,1.14,1.14,0,0,1-.62-1,1,1,0,0,1,.62-1,4,4,0,0,1,1.67-.28,3.48,3.48,0,0,1,2,.43,2.11,2.11,0,0,1,.77,1.44h3.39a4.53,4.53,0,0,0-1.55-3.34,6.91,6.91,0,0,0-4.44-1.16,10.23,10.23,0,0,0-2.7.31,5.06,5.06,0,0,0-1.81.87,3.19,3.19,0,0,0-1,1.3A4.47,4.47,0,0,0,102,14.5a4,4,0,0,0,.38,1.73,3.56,3.56,0,0,0,1.35,1.4,7.07,7.07,0,0,0,1.81.83c.71.23,1.68.49,2.85.78a8.21,8.21,0,0,1,1.6.56,1.19,1.19,0,0,1,.73,1.14,1.27,1.27,0,0,1-.8,1.23,4.59,4.59,0,0,1-1.79.34,3.8,3.8,0,0,1-2.2-.57,1.89,1.89,0,0,1-.8-1.54h-3.65A4.45,4.45,0,0,0,103.24,23.79Z"/></g></g></g></g><g id="Grupo_4818" data-name="Grupo 4818"><path id="Trazado_13695" data-name="Trazado 13695" class="cls-1" d="M139.5,8.05,130.1.41a1.77,1.77,0,0,0-2.27,0l-9.4,7.64a1.8,1.8,0,0,0-.67,1.4V23.31a1.81,1.81,0,0,0,1.8,1.8h18.92l-5.6-6.27A6.62,6.62,0,0,1,129,20.08a6.72,6.72,0,0,1-6.73-6.72h0A6.73,6.73,0,0,1,129,6.62h0a6.73,6.73,0,0,1,5.1,11.12l5.82,6.53a1.73,1.73,0,0,0,.28-1V9.45A1.78,1.78,0,0,0,139.5,8.05Z"/><circle id="Elipse_398" data-name="Elipse 398" class="cls-1" cx="128.96" cy="13.36" r="5.37"/></g></g></g></svg>