<?xml version="1.0" encoding="utf-8"?>
<!-- Generator: Adobe Illustrator 25.4.1, SVG Export Plug-In . SVG Version: 6.00 Build 0)  -->
<svg version="1.1" id="Capa_1" xmlns="http://www.w3.org/2000/svg" xmlns:xlink="http://www.w3.org/1999/xlink" x="0px" y="0px"
	 viewBox="0 0 442.4 111.8" style="enable-background:new 0 0 442.4 111.8;" xml:space="preserve">
<style type="text/css">
	.st0{enable-background:new    ;}
	.st1{fill:#FFFFFF;}
	.st2{fill:url(#Trazado_13822_00000146471405415609057220000017891079176648010402_);}
	.st3{fill:none;stroke:#FFFFFF;stroke-width:1.357;stroke-miterlimit:10;}
</style>
<g id="Grupo_4886" transform="translate(-817.318 -1746.701)">
	<g class="st0">
		<path class="st1" d="M821.7,1829.9h7.6v3c1.4-1.8,3.4-3.4,6.4-3.4c2.9,0,5.1,1.3,6.2,3.5c1.9-2.2,4.1-3.5,7.2-3.5
			c4.6,0,7.4,2.9,7.4,7.9v14.2H849v-11.7c0-2.4-1.2-3.6-3-3.6s-3.1,1.2-3.1,3.6v11.7h-7.6v-11.7c0-2.4-1.2-3.6-3-3.6
			c-1.8,0-3.1,1.2-3.1,3.6v11.7h-7.6V1829.9z"/>
		<path class="st1" d="M860.5,1822.4h7.9v5.6h-7.9V1822.4z M860.6,1829.9h7.6v21.6h-7.6V1829.9z"/>
		<path class="st1" d="M871.6,1840.8L871.6,1840.8c0-6.2,4.8-11.3,11.6-11.3c4.4,0,7.4,1.9,9.2,4.8l-5.1,3.8c-1-1.4-2.2-2.3-4-2.3
			c-2.4,0-4.2,2.2-4.2,4.8v0.1c0,2.8,1.8,4.9,4.3,4.9c1.8,0,3-0.8,4.2-2.2l5.1,3.7c-2,3-4.9,4.9-9.6,4.9
			C876.4,1852,871.6,1846.9,871.6,1840.8z"/>
		<path class="st1" d="M895.2,1829.9h7.6v4.4c1.2-3,3.2-4.9,6.8-4.7v8h-0.6c-4,0-6.2,2.3-6.2,7.3v6.7h-7.6V1829.9z"/>
		<path class="st1" d="M911,1840.8L911,1840.8c0-6.2,5-11.4,12-11.4c6.9,0,11.9,5.1,11.9,11.2v0.1c0,6.1-5,11.3-12,11.3
			C916,1852,911,1847,911,1840.8z M927.4,1840.8L927.4,1840.8c0-2.7-1.9-5-4.6-5c-2.8,0-4.5,2.2-4.5,4.8v0.1c0,2.6,1.9,4.9,4.6,4.9
			C925.7,1845.6,927.4,1843.4,927.4,1840.8z"/>
		<path class="st1" d="M937.1,1840.8L937.1,1840.8c0-6.4,4.5-11.4,10.9-11.4c7.5,0,10.9,5.5,10.9,11.8c0,0.5,0,1,0,1.6h-14.4
			c0.6,2.4,2.3,3.6,4.7,3.6c1.8,0,3.2-0.7,4.8-2.2l4.2,3.5c-2.1,2.6-5.1,4.4-9.4,4.4C941.9,1852,937.1,1847.5,937.1,1840.8z
			 M951.8,1838.9c-0.3-2.4-1.7-3.9-3.8-3.9c-2,0-3.4,1.6-3.8,3.9H951.8z"/>
		<path class="st1" d="M962.2,1829.9h7.6v3c1.4-1.8,3.4-3.4,6.4-3.4c2.9,0,5.1,1.3,6.2,3.5c1.9-2.2,4.1-3.5,7.2-3.5
			c4.6,0,7.4,2.9,7.4,7.9v14.2h-7.6v-11.7c0-2.4-1.2-3.6-3-3.6s-3.1,1.2-3.1,3.6v11.7h-7.6v-11.7c0-2.4-1.2-3.6-3-3.6
			c-1.8,0-3.1,1.2-3.1,3.6v11.7h-7.6V1829.9z"/>
		<path class="st1" d="M1000.9,1829.9h7.6v2.9c1.5-1.8,3.3-3.4,6.5-3.4c5.1,0,9.6,4.3,9.6,11.2v0.1c0,7-4.4,11.3-9.5,11.3
			c-3.3,0-5.2-1.5-6.6-3.1v9h-7.6V1829.9z M1017.2,1840.7L1017.2,1840.7c0-2.9-2-5-4.4-5c-2.4,0-4.4,2-4.4,4.9v0.1
			c0,2.9,2,4.9,4.4,4.9C1015.2,1845.7,1017.2,1843.7,1017.2,1840.7z"/>
		<path class="st1" d="M1027.9,1829.9h7.6v4.4c1.2-3,3.2-4.9,6.8-4.7v8h-0.6c-4,0-6.2,2.3-6.2,7.3v6.7h-7.6V1829.9z"/>
		<path class="st1" d="M1043.7,1840.8L1043.7,1840.8c0-6.4,4.5-11.4,10.9-11.4c7.5,0,10.9,5.5,10.9,11.8c0,0.5,0,1,0,1.6H1051
			c0.6,2.4,2.3,3.6,4.7,3.6c1.8,0,3.2-0.7,4.8-2.2l4.2,3.5c-2.1,2.6-5.1,4.4-9.4,4.4C1048.5,1852,1043.7,1847.5,1043.7,1840.8z
			 M1058.4,1838.9c-0.3-2.4-1.7-3.9-3.8-3.9c-2,0-3.4,1.6-3.8,3.9H1058.4z"/>
		<path class="st1" d="M1068.8,1829.9h7.6v3c1.4-1.8,3.4-3.5,6.5-3.5c4.6,0,7.3,3,7.3,7.9v14.1h-7.6v-11.7c0-2.4-1.2-3.6-3-3.6
			c-1.8,0-3.2,1.3-3.2,3.6v11.7h-7.6V1829.9z"/>
		<path class="st1" d="M1093.3,1840.8L1093.3,1840.8c0-7.1,4.4-11.4,9.5-11.4c3.3,0,5.2,1.5,6.6,3.1v-10.2h7.6v29.1h-7.6v-2.9
			c-1.5,1.8-3.4,3.4-6.6,3.4C1097.7,1852,1093.3,1847.7,1093.3,1840.8z M1109.5,1840.7L1109.5,1840.7c0-2.9-2-5-4.4-5
			c-2.4,0-4.4,2-4.4,4.9v0.1c0,2.9,2,4.9,4.4,4.9C1107.6,1845.7,1109.5,1843.6,1109.5,1840.7z"/>
		<path class="st1" d="M1120.2,1840.8L1120.2,1840.8c0-6.4,4.5-11.4,10.9-11.4c7.5,0,10.9,5.5,10.9,11.8c0,0.5,0,1,0,1.6h-14.5
			c0.6,2.4,2.3,3.6,4.7,3.6c1.8,0,3.2-0.7,4.8-2.2l4.2,3.5c-2.1,2.6-5.1,4.4-9.4,4.4C1125,1852,1120.2,1847.5,1120.2,1840.8z
			 M1134.9,1838.9c-0.3-2.4-1.7-3.9-3.8-3.9c-2,0-3.4,1.6-3.8,3.9H1134.9z"/>
		<path class="st1" d="M1144.4,1840.8L1144.4,1840.8c0-7.1,4.4-11.4,9.5-11.4c3.3,0,5.2,1.5,6.6,3.1v-10.2h7.6v29.1h-7.6v-2.9
			c-1.5,1.8-3.4,3.4-6.6,3.4C1148.8,1852,1144.4,1847.7,1144.4,1840.8z M1160.6,1840.7L1160.6,1840.7c0-2.9-2-5-4.4-5
			c-2.4,0-4.4,2-4.4,4.9v0.1c0,2.9,2,4.9,4.4,4.9C1158.7,1845.7,1160.6,1843.6,1160.6,1840.7z"/>
		<path class="st1" d="M1171.3,1840.8L1171.3,1840.8c0-6.2,5-11.4,12-11.4c6.9,0,11.9,5.1,11.9,11.2v0.1c0,6.1-5,11.3-12,11.3
			C1176.3,1852,1171.3,1847,1171.3,1840.8z M1187.8,1840.8L1187.8,1840.8c0-2.7-1.9-5-4.6-5c-2.8,0-4.5,2.2-4.5,4.8v0.1
			c0,2.6,1.9,4.9,4.6,4.9C1186,1845.6,1187.8,1843.4,1187.8,1840.8z"/>
		<path class="st1" d="M1198.4,1829.9h7.6v4.4c1.2-3,3.2-4.9,6.8-4.7v8h-0.6c-4,0-6.2,2.3-6.2,7.3v6.7h-7.6V1829.9z"/>
		<path class="st1" d="M1214.2,1840.8L1214.2,1840.8c0-6.4,4.5-11.4,10.9-11.4c7.5,0,10.9,5.5,10.9,11.8c0,0.5,0,1,0,1.6h-14.5
			c0.6,2.4,2.3,3.6,4.7,3.6c1.8,0,3.2-0.7,4.8-2.2l4.2,3.5c-2.1,2.6-5.1,4.4-9.4,4.4C1219,1852,1214.2,1847.5,1214.2,1840.8z
			 M1228.9,1838.9c-0.3-2.4-1.7-3.9-3.8-3.9c-2,0-3.4,1.6-3.8,3.9H1228.9z"/>
		<path class="st1" d="M1237.6,1848.8l2.8-4.6c2.5,1.6,5.2,2.5,7.4,2.5c1.3,0,1.9-0.4,1.9-1.2v-0.1c0-0.8-1.2-1.2-3.5-1.8
			c-4.3-1.1-7.7-2.6-7.7-6.9v-0.1c0-4.6,3.7-7.1,8.7-7.1c3.2,0,6.4,0.9,8.9,2.5l-2.6,4.8c-2.2-1.2-4.7-2-6.4-2c-1.2,0-1.8,0.4-1.8,1
			v0.1c0,0.8,1.2,1.2,3.5,1.9c4.3,1.2,7.7,2.7,7.7,6.9v0.1c0,4.8-3.6,7.2-8.8,7.2C1244.1,1852,1240.6,1851,1237.6,1848.8z"/>
	</g>
	
		<linearGradient id="Trazado_13822_00000083803004138667291210000014712775394882262169_" gradientUnits="userSpaceOnUse" x1="498.1228" y1="2355.2908" x2="499.1228" y2="2355.2908" gradientTransform="matrix(-266.073 0 0 39.951 133622.7812 -92302.1406)">
		<stop  offset="0" style="stop-color:#0079FF"/>
		<stop  offset="1" style="stop-color:#B8D900"/>
	</linearGradient>
	<path id="Trazado_13822" style="fill:url(#Trazado_13822_00000083803004138667291210000014712775394882262169_);" d="
		M1085.7,1814.1H819.7v-40h266.1V1814.1z"/>
	<g class="st0">
		<path class="st3" d="M820.9,1784.2v-0.2c0-11.9,9.3-22,22.6-22c8.6,0,14.4,3.7,18,9.4l-10,7.5c-2-2.8-4.3-4.4-7.9-4.4
			c-4.8,0-8.3,4.2-8.3,9.3v0.2c0,5.5,3.4,9.6,8.4,9.6c3.5,0,5.8-1.6,8.1-4.4l9.9,7.2c-3.9,5.8-9.5,9.7-18.8,9.7
			C830.3,1806.1,820.9,1796.1,820.9,1784.2z"/>
		<path class="st3" d="M864.1,1784.2v-0.2c0-12,9.8-22,23.4-22c13.5,0,23.2,9.9,23.2,21.9v0.2c0,12-9.8,22-23.4,22
			C873.8,1806.1,864.1,1796.2,864.1,1784.2z M896.2,1784.2v-0.2c0-5.1-3.7-9.5-9-9.5c-5.4,0-8.8,4.3-8.8,9.3v0.2
			c0,5.1,3.7,9.5,9,9.5C892.8,1793.5,896.2,1789.3,896.2,1784.2z"/>
		<path class="st3" d="M916.9,1762.9h14.8v5.9c2.7-3.5,6.6-6.9,12.6-6.9c9,0,14.3,5.9,14.3,15.5v27.6h-14.8v-22.8
			c0-4.6-2.4-7.1-5.9-7.1c-3.6,0-6.2,2.5-6.2,7.1v22.8h-14.8V1762.9z"/>
		<path class="st3" d="M964.5,1784.2v-0.2c0-11.9,9.3-22,22.6-22c8.6,0,14.4,3.7,18,9.4l-10,7.5c-2-2.8-4.3-4.4-7.9-4.4
			c-4.8,0-8.3,4.2-8.3,9.3v0.2c0,5.5,3.4,9.6,8.4,9.6c3.5,0,5.8-1.6,8.1-4.4l9.9,7.2c-3.9,5.8-9.5,9.7-18.8,9.7
			C973.9,1806.1,964.5,1796.1,964.5,1784.2z"/>
		<path class="st3" d="M1010.2,1790.5v-27.6h14.8v22.8c0,4.6,2.4,7.1,6,7.1c3.5,0,6.2-2.5,6.2-7.1v-22.8h14.8v42.1h-14.8v-5.8
			c-2.7,3.5-6.6,6.7-12.6,6.7C1015.6,1806,1010.2,1800.1,1010.2,1790.5z"/>
		<path class="st3" d="M1059.9,1762.9h14.8v8.5c2.4-5.8,6.3-9.5,13.3-9.2v15.6h-1.2c-7.7,0-12.1,4.4-12.1,14.2v13.1h-14.8V1762.9z"
			/>
		<path class="st3" d="M1090,1799.8l5.5-9c4.8,3.2,10.1,4.8,14.5,4.8c2.6,0,3.7-0.8,3.7-2.3v-0.2c0-1.6-2.3-2.3-6.8-3.6
			c-8.3-2.2-15-5-15-13.5v-0.2c0-9,7.2-13.9,16.9-13.9c6.2,0,12.5,1.8,17.4,4.9l-5.1,9.3c-4.4-2.4-9.1-3.9-12.5-3.9
			c-2.3,0-3.4,0.9-3.4,2v0.2c0,1.6,2.4,2.4,6.9,3.7c8.3,2.3,15,5.2,15,13.4v0.2c0,9.3-6.9,14.1-17.2,14.1
			C1102.9,1806,1095.9,1804,1090,1799.8z"/>
		<path class="st3" d="M1131.5,1784.2v-0.2c0-12,9.8-22,23.4-22c13.5,0,23.2,9.9,23.2,21.9v0.2c0,12-9.8,22-23.4,22
			C1141.3,1806.1,1131.5,1796.2,1131.5,1784.2z M1163.7,1784.2v-0.2c0-5.1-3.7-9.5-9-9.5c-5.4,0-8.8,4.3-8.8,9.3v0.2
			c0,5.1,3.7,9.5,9,9.5C1160.3,1793.5,1163.7,1789.3,1163.7,1784.2z"/>
	</g>
</g>
</svg>
