<svg xmlns="http://www.w3.org/2000/svg" viewBox="0 0 198.1 20.06"><defs><style>.cls-1{fill:#fff;}</style></defs><g id="Capa_2" data-name="Capa 2"><g id="Capa_1-2" data-name="Capa 1"><path class="cls-1" d="M9.35,20C3.46,20,0,15.55,0,10.06,0,4.4,3.46,0,9.35,0c4,0,7.36,2.22,8.12,6.22a.52.52,0,0,1-.5.62h-3a.48.48,0,0,1-.49-.36,4.18,4.18,0,0,0-4.09-3c-3.76,0-5.17,3.19-5.17,6.53,0,3.17,1.41,6.37,5.17,6.37,2.42,0,3.83-1.57,4.25-3.84a.52.52,0,0,1,.51-.43h3a.51.51,0,0,1,.5.58A8,8,0,0,1,9.35,20Z"/><path class="cls-1" d="M57.39,19a.5.5,0,0,1-.51.51H53.49a.53.53,0,0,1-.44-.23L45.29,6.76h-.06V19a.51.51,0,0,1-.51.51H41.83a.51.51,0,0,1-.52-.51V1a.51.51,0,0,1,.52-.51h3.35a.51.51,0,0,1,.44.24l7.79,12.53h.05V1A.51.51,0,0,1,54,.46h2.9a.51.51,0,0,1,.51.51Z"/><path class="cls-1" d="M68,20c-4,0-7.86-1.93-8.09-6.25a.51.51,0,0,1,.5-.52h3.06a.5.5,0,0,1,.5.44c.22,2.21,2.09,3.08,4.19,3.08,1.47,0,3.71-.43,3.71-2.38S69,11.93,66.19,11.18s-5.68-1.84-5.68-5.41C60.51,1.88,64.19,0,67.62,0,71.44,0,75,1.6,75.23,5.61a.5.5,0,0,1-.51.53H71.65a.48.48,0,0,1-.49-.42c-.31-1.94-1.86-2.45-3.72-2.45-1.34,0-2.88.55-2.88,2.15s.9,1.66,5.67,2.88c1.39.34,5.66,1.23,5.66,5.54C75.89,17.34,73.14,20,68,20Z"/><path class="cls-1" d="M92.46,3.47A.52.52,0,0,1,92,4H87.27a.49.49,0,0,0-.5.5V19a.51.51,0,0,1-.52.51H83.09a.51.51,0,0,1-.52-.51V4.49a.5.5,0,0,0-.51-.5H77.38a.51.51,0,0,1-.5-.52V1a.5.5,0,0,1,.5-.51H92a.51.51,0,0,1,.5.51Z"/><path class="cls-1" d="M121.92,20c-5.12,0-8.1-2.48-8.1-7.64V1a.51.51,0,0,1,.5-.51h3.18A.51.51,0,0,1,118,1V12.31c0,2.07.54,4.12,3.92,4.12,3,0,4-1.3,4-4.12V1a.51.51,0,0,1,.5-.51h3.17a.51.51,0,0,1,.51.51V12.31C130.05,17.44,127,20,121.92,20Z"/><path class="cls-1" d="M135,19.6h-5.09l1.07-.9a.52.52,0,0,1,.33-.11h3.81c3.57,0,7.64-2,7.64-8.59,0-7.83-5-8.52-7.89-8.52h-4.29a.51.51,0,0,1-.5-.52.5.5,0,0,1,.5-.5H135c6.87,0,8.89,4.69,8.89,9.54C143.92,15.42,141.16,19.6,135,19.6Z"/><path class="cls-1" d="M159.23,19.6h-12a.5.5,0,0,1-.5-.51V1a.5.5,0,0,1,.5-.51h11.9a.52.52,0,0,1,.51.51.52.52,0,0,1-.51.51H148.38a.5.5,0,0,0-.5.51V8.64a.5.5,0,0,0,.5.51h10a.5.5,0,0,1,.5.51h0a.5.5,0,0,1-.5.5h-10a.51.51,0,0,0-.5.52v7.39a.51.51,0,0,0,.5.52h10.85a.49.49,0,0,1,.5.5A.5.5,0,0,1,159.23,19.6Z"/><path class="cls-1" d="M170.18,20.06c-5.75,0-9.15-4.42-9.15-10s3.4-10,9.15-10c5.56,0,7.17,3.94,7.59,5.53a.51.51,0,0,1-.48.64h-.16a.51.51,0,0,1-.49-.41A6.33,6.33,0,0,0,170.18,1c-5,0-8,4.1-8,9s2.93,9,8,9c3.58,0,6.39-3,6.82-6.43a.51.51,0,0,1,.49-.47h.16a.51.51,0,0,1,.5.58C177.5,17,174.23,20.06,170.18,20.06Z"/><path class="cls-1" d="M189,0c-5.76,0-9.16,4.42-9.16,10s3.4,10,9.16,10,9.11-4.41,9.11-10S194.72,0,189,0Zm0,19c-5,0-8-4.11-8-9s2.93-9,8-9,7.93,4.1,7.93,9S194,19,189,19Z"/><path class="cls-1" d="M29.11,0c-5.89,0-9.36,4.39-9.36,10.05,0,5.49,3.47,9.89,9.36,9.89s9.35-4.4,9.35-9.89C38.46,4.4,35,0,29.11,0Zm0,16.42c-3.77,0-5.18-3.2-5.18-6.37,0-3.33,1.41-6.53,5.18-6.53s5.16,3.2,5.16,6.53C34.27,13.23,32.86,16.43,29.11,16.43Z"/><path class="cls-1" d="M110.24,15c-.14-1.92-.72-3.92-2.77-4.45v0a4.7,4.7,0,0,0,3-4.77A5.23,5.23,0,0,0,104.91.46H95.16a.51.51,0,0,0-.51.51V19a.51.51,0,0,0,.51.51h3.17a.51.51,0,0,0,.51-.51V12.57a.51.51,0,0,1,.5-.52H103c2.11,0,2.88.89,3.17,2.88a31.26,31.26,0,0,0,.54,4.23.51.51,0,0,0,.48.33h3a.51.51,0,0,0,.48-.67A16.27,16.27,0,0,1,110.24,15Zm-6.81-5.92H99.34a.51.51,0,0,1-.5-.51V4.22a.51.51,0,0,1,.5-.5h4.09c1.85,0,2.87.79,2.87,2.64S105.28,9.07,103.43,9.07Z"/></g></g></svg>