<svg xmlns="http://www.w3.org/2000/svg" viewBox="0 0 106.84 142.25"><defs><style>.cls-1{fill:#fff;}.cls-2{fill:#f27329;}.cls-3{fill:#2964a5;}.cls-4{fill:#99bd34;}.cls-5{fill:#cb0e6f;}.cls-6{fill:#e8e4eb;opacity:0.29;}.cls-7{fill:#0092ce;}.cls-8{fill:#c44b8a;}</style></defs><g id="Capa_2" data-name="Capa 2"><g id="Capa_1-2" data-name="Capa 1"><path class="cls-1" d="M0,1H13.9V19.78H31.74V1H45.65V51.16H31.74V32.1H13.9V51.16H0Z"/><path class="cls-1" d="M79.75,52.17A27.66,27.66,0,0,1,69,50.12a26.44,26.44,0,0,1-8.53-5.55,25.64,25.64,0,0,1-5.63-8.24,25.22,25.22,0,0,1-2-10.1v-.15A25.53,25.53,0,0,1,60.55,7.63,27.07,27.07,0,0,1,69.15,2a29.34,29.34,0,0,1,21.5,0A26.52,26.52,0,0,1,99.17,7.6a25.53,25.53,0,0,1,5.63,8.24,25.22,25.22,0,0,1,2,10.1v.14A25.57,25.57,0,0,1,99.1,44.54a27,27,0,0,1-8.6,5.58A27.71,27.71,0,0,1,79.75,52.17Zm.11-12.54a12.51,12.51,0,0,0,5.25-1.08,11.92,11.92,0,0,0,4-2.9,13.71,13.71,0,0,0,2.59-4.26,14.39,14.39,0,0,0,.93-5.16v-.15a14.39,14.39,0,0,0-.93-5.16,13.5,13.5,0,0,0-2.66-4.3,13.12,13.12,0,0,0-4.1-3,12.21,12.21,0,0,0-5.24-1.11,12.38,12.38,0,0,0-5.21,1.07,12.5,12.5,0,0,0-6.61,7.17,14.82,14.82,0,0,0-.9,5.16v.14a14.31,14.31,0,0,0,.93,5.16,13.38,13.38,0,0,0,2.63,4.3,12.54,12.54,0,0,0,4.06,3A12.18,12.18,0,0,0,79.86,39.63Z"/><path class="cls-1" d="M0,56.21H14.69l12,19.42,12-19.42H53.31v50.16H39.48V77.57L26.69,97.2h-.28L13.69,77.71v28.66H0Z"/><path class="cls-1" d="M62.2,56.21h40.27V68H75.89v7.59H100v11H75.89v8h26.94v11.82H62.2Z"/><path class="cls-2" d="M26.49,113.26H49.41V120H34.31v4.31H48v6.23H34.31V135H49.62v6.72H26.49Z"/><path class="cls-3" d="M.1,113.26H22.9v6.92H8V125H21.48v6.56H8v10.18H.1Z"/><path class="cls-4" d="M51.49,137.53l4.4-5.26a14.67,14.67,0,0,0,9.24,3.42c2.12,0,3.26-.73,3.26-1.95v-.08c0-1.18-.94-1.84-4.81-2.73-6.06-1.39-10.75-3.1-10.75-9v-.08c0-5.29,4.2-9.12,11-9.12a18,18,0,0,1,11.73,3.78l-3.95,5.58a14.34,14.34,0,0,0-8-2.81c-1.91,0-2.85.82-2.85,1.84v.08c0,1.3,1,1.87,4.93,2.77,6.56,1.42,10.63,3.54,10.63,8.87V133c0,5.83-4.6,9.29-11.52,9.29A19.94,19.94,0,0,1,51.49,137.53Z"/><path class="cls-5" d="M86.35,120.18H77.79v-6.92h25v6.92H94.24v21.58H86.35Z"/><rect class="cls-6" x="26.49" y="113.26" width="7.85" height="28.5"/><rect class="cls-7" x="0.1" y="113.26" width="7.9" height="28.5"/><rect class="cls-8" x="77.79" y="113.26" width="25" height="6.92"/></g></g></svg>