<svg xmlns="http://www.w3.org/2000/svg" viewBox="0 0 166.07 29.81"><defs><style>.cls-1{fill:#fff;}</style></defs><g id="Capa_2" data-name="Capa 2"><g id="Capa_1-2" data-name="Capa 1"><path class="cls-1" d="M20.64,13.73a4.38,4.38,0,0,0-1.7-1.08,6.32,6.32,0,0,0-2.16-.37,6.46,6.46,0,0,0-3.27.74,5.37,5.37,0,0,0-2,2.19.12.12,0,0,1-.13.06.11.11,0,0,1-.08-.11V12.28h-4V29.81h4.18V20c0-2.7,1.19-4.08,3.53-4.08a3,3,0,0,1,2.29.74A4.22,4.22,0,0,1,18,19.45V29.81h4.22V17.94a6.56,6.56,0,0,0-.42-2.44A5,5,0,0,0,20.64,13.73Z"/><path class="cls-1" d="M32.11,11H29.38a.11.11,0,0,1-.11-.11,6,6,0,0,1,.12-1.31,1.87,1.87,0,0,1,.45-.9,1.75,1.75,0,0,1,.88-.48A6.34,6.34,0,0,1,32,8V4.47c-4.61,0-6.86,2.12-6.86,6.39A.11.11,0,0,1,25,11H22.68v3.1H25a.11.11,0,0,1,.11.11V29.81h4.12V14.18a.11.11,0,0,1,.11-.11h2.73Z"/><path class="cls-1" d="M48.2,17.42a7.7,7.7,0,0,0-1.68-2.76,7.45,7.45,0,0,0-2.62-1.75,9.11,9.11,0,0,0-3.48-.63,9.33,9.33,0,0,0-3.53.63,7.48,7.48,0,0,0-2.65,1.77,7.71,7.71,0,0,0-1.69,2.77,10.58,10.58,0,0,0-.59,3.6,10.72,10.72,0,0,0,.57,3.56,7.7,7.7,0,0,0,1.66,2.77,7.48,7.48,0,0,0,2.65,1.79,10.18,10.18,0,0,0,7,0,7.44,7.44,0,0,0,2.63-1.77,7.88,7.88,0,0,0,1.68-2.76,10.76,10.76,0,0,0,.58-3.61A10.92,10.92,0,0,0,48.2,17.42Zm-7.78,8.87c-2.75,0-4.14-1.76-4.14-5.24s1.39-5.21,4.14-5.21,4.15,1.75,4.15,5.21S43.17,26.29,40.42,26.29Z"/><rect class="cls-1" y="4.33" width="4.18" height="25.49"/><path class="cls-1" d="M109.36,29.81a7.83,7.83,0,0,0,2.94-.52,5.32,5.32,0,0,0,2-1.4.13.13,0,0,1,.12,0,.09.09,0,0,1,.08.09,11.79,11.79,0,0,0,.24,1.83h3.91v-11a10,10,0,0,0-.37-2.8,4.76,4.76,0,0,0-1.18-2A5.16,5.16,0,0,0,115,12.72a10.9,10.9,0,0,0-3.3-.44,11.61,11.61,0,0,0-3.36.42,5.82,5.82,0,0,0-2.21,1.19,4.57,4.57,0,0,0-1.22,1.85,7.31,7.31,0,0,0-.42,2.25h3.89a3.34,3.34,0,0,1,.85-1.78,3.08,3.08,0,0,1,2.26-.72,4.12,4.12,0,0,1,2.11.48,1.54,1.54,0,0,1,.81,1.38,1.52,1.52,0,0,1-.62,1.36,5.87,5.87,0,0,1-2.28.66c-1.1.16-2.13.33-3.06.53a7.67,7.67,0,0,0-2.39.89,4.25,4.25,0,0,0-1.55,1.65,6.17,6.17,0,0,0-.56,2.85,4.35,4.35,0,0,0,1.3,3.26A5.81,5.81,0,0,0,109.36,29.81Zm-.51-6.72a6.1,6.1,0,0,1,2.66-1,17.41,17.41,0,0,0,1.85-.45,2.16,2.16,0,0,0,.93-.52.12.12,0,0,1,.13,0,.1.1,0,0,1,.07.1l0,1.85a3.35,3.35,0,0,1-.33,1.46,4,4,0,0,1-.87,1.19,3.87,3.87,0,0,1-1.29.81,4.28,4.28,0,0,1-1.62.3c-1.49,0-2.24-.67-2.24-2A2.13,2.13,0,0,1,108.85,23.09Z"/><path class="cls-1" d="M67.8,6.92A8.92,8.92,0,0,0,64.89,5.1a10.5,10.5,0,0,0-3.77-.66,10.08,10.08,0,0,0-4.31.9,9.1,9.1,0,0,0-3.26,2.55A11.81,11.81,0,0,0,51.49,12a19,19,0,0,0-.73,5.44,16.86,16.86,0,0,0,.79,5.39,11.63,11.63,0,0,0,2.17,3.88A8.71,8.71,0,0,0,57,29a10.62,10.62,0,0,0,4.07.79,9.63,9.63,0,0,0,3.55-.64,8.76,8.76,0,0,0,2.83-1.82,10.13,10.13,0,0,0,2-2.82A14.43,14.43,0,0,0,70.61,21H66.12a6.48,6.48,0,0,1-1.76,3.45,4.76,4.76,0,0,1-3.44,1.24,4.64,4.64,0,0,1-4.21-2.27,12,12,0,0,1-1.39-6.28,12,12,0,0,1,1.4-6.25,4.87,4.87,0,0,1,4.43-2.31,4.71,4.71,0,0,1,3.12,1.17,5.79,5.79,0,0,1,1.85,3.16h4.5a10.31,10.31,0,0,0-.88-3.23A8.87,8.87,0,0,0,67.8,6.92Z"/><path class="cls-1" d="M76.91,29.81a7.82,7.82,0,0,0,2.93-.52,5.44,5.44,0,0,0,2-1.4.12.12,0,0,1,.12,0,.1.1,0,0,1,.07.09,11.73,11.73,0,0,0,.25,1.83h3.9v-11a9.64,9.64,0,0,0-.37-2.8,4.74,4.74,0,0,0-1.17-2,5.26,5.26,0,0,0-2.16-1.26,10.9,10.9,0,0,0-3.3-.44,11.59,11.59,0,0,0-3.35.42,5.75,5.75,0,0,0-2.21,1.19,4.5,4.5,0,0,0-1.23,1.85A7.62,7.62,0,0,0,72,18H75.9a3.26,3.26,0,0,1,.84-1.78A3.09,3.09,0,0,1,79,15.49a4.1,4.1,0,0,1,2.1.48,1.67,1.67,0,0,1,.2,2.74,5.94,5.94,0,0,1-2.29.66c-1.1.16-2.13.33-3.06.53a7.51,7.51,0,0,0-2.38.89A4.27,4.27,0,0,0,72,22.44a6.17,6.17,0,0,0-.56,2.85,4.32,4.32,0,0,0,1.31,3.26A5.79,5.79,0,0,0,76.91,29.81Zm-.52-6.72a6.21,6.21,0,0,1,2.66-1,16.81,16.81,0,0,0,1.85-.45,2.21,2.21,0,0,0,.94-.52.11.11,0,0,1,.12,0,.1.1,0,0,1,.07.1l0,1.85a3.36,3.36,0,0,1-.34,1.46,4,4,0,0,1-.87,1.19,3.93,3.93,0,0,1-1.28.81,4.36,4.36,0,0,1-1.62.3c-1.49,0-2.25-.67-2.25-2A2.16,2.16,0,0,1,76.39,23.09Z"/><path class="cls-1" d="M87.79,24.16a5.27,5.27,0,0,0,2.08,4,9.19,9.19,0,0,0,5.84,1.62,8.5,8.5,0,0,0,5.36-1.45,4.89,4.89,0,0,0,1.81-4,4.08,4.08,0,0,0-.69-2.52,4.7,4.7,0,0,0-2-1.46A20.4,20.4,0,0,0,98,19.66c-.85-.22-1.76-.47-2.72-.74a9.64,9.64,0,0,1-2.06-.78,1.37,1.37,0,0,1-.73-1.24,1.21,1.21,0,0,1,.74-1.17,4.64,4.64,0,0,1,2-.34,4.09,4.09,0,0,1,2.3.52,2.45,2.45,0,0,1,.92,1.71h4a5.38,5.38,0,0,0-1.84-4c-1.11-.92-2.88-1.38-5.26-1.38a11.82,11.82,0,0,0-3.2.37,6.07,6.07,0,0,0-2.15,1,3.71,3.71,0,0,0-1.19,1.55,5.19,5.19,0,0,0-.36,1.94,4.8,4.8,0,0,0,.44,2,4.24,4.24,0,0,0,1.61,1.67,8.87,8.87,0,0,0,2.14,1c.85.27,2,.58,3.38.92a11,11,0,0,1,1.9.66,1.41,1.41,0,0,1,.86,1.36,1.48,1.48,0,0,1-1,1.45,5.09,5.09,0,0,1-2.11.4A4.44,4.44,0,0,1,93.06,26a2.22,2.22,0,0,1-1-1.83Z"/><path class="cls-1" d="M122.32,28.19a9.19,9.19,0,0,0,5.84,1.62,8.5,8.5,0,0,0,5.36-1.45,4.89,4.89,0,0,0,1.81-4,4.08,4.08,0,0,0-.69-2.52,4.7,4.7,0,0,0-2-1.46,20.4,20.4,0,0,0-2.25-.69c-.85-.22-1.76-.47-2.72-.74a9.31,9.31,0,0,1-2.05-.78,1.35,1.35,0,0,1-.73-1.24,1.2,1.2,0,0,1,.73-1.17,4.64,4.64,0,0,1,2-.34,4.15,4.15,0,0,1,2.31.52,2.48,2.48,0,0,1,.91,1.71h4a5.38,5.38,0,0,0-1.84-4c-1.11-.92-2.88-1.38-5.26-1.38a11.82,11.82,0,0,0-3.2.37,6.07,6.07,0,0,0-2.15,1,3.71,3.71,0,0,0-1.19,1.55,5.19,5.19,0,0,0-.36,1.94,4.66,4.66,0,0,0,.45,2,4.14,4.14,0,0,0,1.6,1.67,8.87,8.87,0,0,0,2.14,1c.85.27,2,.58,3.38.92a11,11,0,0,1,1.9.66,1.41,1.41,0,0,1,.86,1.36,1.49,1.49,0,0,1-.94,1.45,5.14,5.14,0,0,1-2.12.4,4.39,4.39,0,0,1-2.6-.67,2.21,2.21,0,0,1-1-1.83h-4.32A5.27,5.27,0,0,0,122.32,28.19Z"/><path class="cls-1" d="M165.28,9.54,154.14.48a2.14,2.14,0,0,0-2.7,0L140.3,9.54a2.14,2.14,0,0,0-.79,1.66V27.62a2.13,2.13,0,0,0,2.14,2.13h22.41l-6.63-7.44a8,8,0,1,1,1.4-1.29l6.91,7.74a2.11,2.11,0,0,0,.33-1.14V11.2A2.14,2.14,0,0,0,165.28,9.54Z"/><circle class="cls-1" cx="152.79" cy="15.82" r="6.36"/></g></g></svg>