<svg xmlns="http://www.w3.org/2000/svg" viewBox="0 0 48.92 24.46"><defs><style>.cls-1{fill:#0070e7;}.cls-2{fill:#9ac231;}.cls-3{fill:#cb0b6f;}</style></defs><g id="Capa_2" data-name="Capa 2"><g id="Capa_1-2" data-name="Capa 1"><path class="cls-1" d="M24.46,12.23A12.22,12.22,0,0,1,12.23,24.46h0A12.23,12.23,0,0,1,0,12.23Z"/><path class="cls-2" d="M24.46,0A12.23,12.23,0,0,1,12.23,12.23h0A12.24,12.24,0,0,1,0,0Z"/><path class="cls-3" d="M36.69,0h0A12.24,12.24,0,0,0,24.46,12.23h0A12.23,12.23,0,0,0,36.69,24.46h0A12.22,12.22,0,0,0,48.92,12.23h0A12.23,12.23,0,0,0,36.69,0Zm0,5.22a7,7,0,0,1,7,7h0a7,7,0,1,1-14,0h0A7,7,0,0,1,36.69,5.22Z"/></g></g></svg>