<svg xmlns="http://www.w3.org/2000/svg" viewBox="0 0 50.98 26.08"><defs><style>.cls-1{fill:#cb0b6f;}.cls-2{fill:#9ac231;}.cls-3{fill:#f67327;}</style></defs><g id="Capa_2" data-name="Capa 2"><g id="Capa_1-2" data-name="Capa 1"><path class="cls-1" d="M12.79,0A12.79,12.79,0,0,1,25.58,12.79h0A12.79,12.79,0,0,1,12.79,25.58Z"/><path class="cls-2" d="M0,0A12.79,12.79,0,0,1,12.79,12.79h0A12.79,12.79,0,0,1,0,25.58Z"/><path class="cls-3" d="M25.4,13.29h0A12.79,12.79,0,0,0,38.19,26.08h0A12.79,12.79,0,0,0,51,13.29h0A12.79,12.79,0,0,0,38.19.5h0A12.79,12.79,0,0,0,25.4,13.29Z"/></g></g></svg>