<svg xmlns="http://www.w3.org/2000/svg" viewBox="0 0 177.01 39.47"><defs><style>.cls-1{fill:#201d1e;}</style></defs><g id="Capa_2" data-name="Capa 2"><g id="Capa_1-2" data-name="Capa 1"><g id="Grupo_4783" data-name="Grupo 4783"><path id="Trazado_13667" data-name="Trazado 13667" class="cls-1" d="M132.22,34.91a8.7,8.7,0,0,1-.72,1.83,8.54,8.54,0,0,1-1.31,1.74,3.46,3.46,0,0,1-1,.74,2.26,2.26,0,0,1-1,.24,1.33,1.33,0,0,1-.73-.14c-.13-.09-.2-.18-.2-.27a.2.2,0,0,1,.07-.16.2.2,0,0,1,.15-.06.6.6,0,0,1,.27.06,1.37,1.37,0,0,1,.22.2.51.51,0,0,0,.16.13l.24,0a1.58,1.58,0,0,0,.56-.13,1.72,1.72,0,0,0,.47-.28,3.54,3.54,0,0,0,.66-.62,2.14,2.14,0,0,0,.35-.6,3.74,3.74,0,0,0,.22-.92c0-.32.06-.64.07-1,0-.15,0-.44,0-.86a2.3,2.3,0,0,0-.07-.58.4.4,0,0,0-.12-.22.13.13,0,0,0-.1,0,.21.21,0,0,0-.18.09,2.15,2.15,0,0,0-.31.73h0a.18.18,0,0,1-.12,0,6.18,6.18,0,0,1,.23-.73,1.63,1.63,0,0,1,.24-.4.77.77,0,0,1,.21-.14h.11q.26,0,.42.33a3.09,3.09,0,0,1,.21,1.27,7.82,7.82,0,0,1,0,.9,7,7,0,0,1-.11.8,4.34,4.34,0,0,0-.08.45l0-.06a8.7,8.7,0,0,0,.5-.83,3.41,3.41,0,0,0,.29-.71,5.86,5.86,0,0,0,.21-.85,3.55,3.55,0,0,0,.05-.57v-.19a.85.85,0,0,1,0-.13.54.54,0,0,1,.08-.33.17.17,0,0,1,.16-.06.18.18,0,0,1,.17.06.26.26,0,0,1,.06.21A5.76,5.76,0,0,1,132.22,34.91Z"/><path id="Trazado_13668" data-name="Trazado 13668" class="cls-1" d="M136.83,37.24a1.94,1.94,0,0,1-2-1.89,1.15,1.15,0,0,1,0-.19,1.94,1.94,0,0,1,1.76-2.11h.21a1.64,1.64,0,0,1,1.71,1.31.11.11,0,0,1-.09.13h-.66a.1.1,0,0,1-.1-.08.88.88,0,0,0-.86-.62c-.79,0-1.09.67-1.09,1.37s.3,1.35,1.09,1.35a.89.89,0,0,0,.9-.81.11.11,0,0,1,.1-.09h.64a.11.11,0,0,1,.11.11h0A1.69,1.69,0,0,1,136.83,37.24Z"/><path id="Trazado_13669" data-name="Trazado 13669" class="cls-1" d="M147.35,37a.1.1,0,0,1-.1.1h-.72a.09.09,0,0,1-.09,0l-1.64-2.63h0V37a.1.1,0,0,1-.11.1h-.61A.1.1,0,0,1,144,37h0v-3.8a.11.11,0,0,1,.11-.11h.71a.11.11,0,0,1,.09,0l1.64,2.64h0V33.24a.11.11,0,0,1,.11-.11h.61a.1.1,0,0,1,.11.09V37Z"/><path id="Trazado_13670" data-name="Trazado 13670" class="cls-1" d="M149.58,37.24c-.85,0-1.65-.4-1.7-1.32a.12.12,0,0,1,.1-.11h.65a.13.13,0,0,1,.1.1c.05.46.44.64.88.64s.79-.09.79-.5-.6-.5-1.19-.66S148,35,148,34.25A1.34,1.34,0,0,1,149.45,33h.06c.8,0,1.54.33,1.6,1.18a.11.11,0,0,1-.1.11h-.66a.11.11,0,0,1-.1-.09c-.06-.41-.39-.52-.78-.52s-.61.12-.61.46.19.35,1.2.6c.29.08,1.19.26,1.19,1.17C151.25,36.69,150.67,37.24,149.58,37.24Z"/><path id="Trazado_13671" data-name="Trazado 13671" class="cls-1" d="M154.74,33.77a.11.11,0,0,1-.1.11h-1a.1.1,0,0,0-.11.1h0V37a.1.1,0,0,1-.11.1h-.66a.1.1,0,0,1-.11-.1h0V34a.1.1,0,0,0-.11-.1h-1a.1.1,0,0,1-.1-.11v-.53a.09.09,0,0,1,.1-.1h3.08a.1.1,0,0,1,.1.1Z"/><path id="Trazado_13672" data-name="Trazado 13672" class="cls-1" d="M161,37.24c-1.08,0-1.71-.52-1.71-1.61V33.24a.12.12,0,0,1,.11-.11H160a.12.12,0,0,1,.11.11v2.39c0,.44.11.87.83.87s.83-.28.83-.87V33.24a.12.12,0,0,1,.1-.11h.67a.12.12,0,0,1,.11.11v2.39a1.49,1.49,0,0,1-1.37,1.62A1.29,1.29,0,0,1,161,37.24Z"/><path id="Trazado_13673" data-name="Trazado 13673" class="cls-1" d="M163.7,37.17h-1.07l.22-.19a.11.11,0,0,1,.07,0h.8c.76,0,1.61-.41,1.61-1.8,0-1.66-1.06-1.8-1.66-1.8h-.9a.12.12,0,0,1-.11-.11h0a.11.11,0,0,1,.11-.11h.94a1.75,1.75,0,0,1,1.88,1.62,1.7,1.7,0,0,1,0,.39,1.8,1.8,0,0,1-1.56,2Z"/><path id="Trazado_13674" data-name="Trazado 13674" class="cls-1" d="M168.81,37.17h-2.54a.1.1,0,0,1-.1-.11h0V33.24a.11.11,0,0,1,.1-.11h2.51a.12.12,0,0,1,.11.11.11.11,0,0,1-.11.11h-2.26a.1.1,0,0,0-.1.09v1.42a.1.1,0,0,0,.1.1h2.11a.11.11,0,0,1,.11.11h0a.11.11,0,0,1-.09.11h-2.13a.09.09,0,0,0-.1.1h0v1.56a.1.1,0,0,0,.1.11h2.29a.11.11,0,0,1,.11.09v0a.13.13,0,0,1-.11.11Z"/><path id="Trazado_13675" data-name="Trazado 13675" class="cls-1" d="M171.11,37.26a1.92,1.92,0,0,1-1.93-1.92,1.21,1.21,0,0,1,0-.19,1.91,1.91,0,0,1,1.73-2.1h.19a1.53,1.53,0,0,1,1.6,1.16.1.1,0,0,1-.08.13h0a.11.11,0,0,1-.1-.09,1.35,1.35,0,0,0-1.36-1A1.72,1.72,0,0,0,169.43,35a.66.66,0,0,0,0,.14A1.72,1.72,0,0,0,171,37h.14a1.52,1.52,0,0,0,1.44-1.35.09.09,0,0,1,.1-.1h0a.09.09,0,0,1,.1.1v0A1.73,1.73,0,0,1,171.11,37.26Z"/><path id="Trazado_13676" data-name="Trazado 13676" class="cls-1" d="M129.21,33.69a.39.39,0,0,0-.3-.16,1.16,1.16,0,0,0-.32.08,1.84,1.84,0,0,0-.43.3l-.66.75-.64.86.5-1.6c.13-.36.2-.6.23-.71l.34-1.06c.18-.53.27-.82.28-.87l-.58,0a2.8,2.8,0,0,0-.5,0v.13h.08a.73.73,0,0,1,.35.09.22.22,0,0,1,.08.15.7.7,0,0,1,0,.25c-.09.24-.19.53-.29.86l-.88,2.65-.24.84a2.2,2.2,0,0,0-.1.57.45.45,0,0,0,.15.33.57.57,0,0,0,.41.14,1.43,1.43,0,0,0,.61-.17,3.52,3.52,0,0,0,1-.65,4.12,4.12,0,0,0,.83-1.15,2.85,2.85,0,0,0,.3-1.22A.71.71,0,0,0,129.21,33.69Zm-.4,1.11a6.68,6.68,0,0,1-.47,1,7,7,0,0,1-.53.69,2.74,2.74,0,0,1-.69.62.51.51,0,0,1-.3.09.24.24,0,0,1-.21-.09.33.33,0,0,1-.09-.23,2.31,2.31,0,0,1,.12-.52,3.48,3.48,0,0,1,.29-.69,11.24,11.24,0,0,1,.79-1,3.13,3.13,0,0,1,.67-.64.5.5,0,0,1,.27-.08.25.25,0,0,1,.21.08.28.28,0,0,1,.08.2,1.56,1.56,0,0,1-.14.63Z"/><path id="Trazado_13677" data-name="Trazado 13677" class="cls-1" d="M175.08,33A1.92,1.92,0,0,0,173.14,35a1.21,1.21,0,0,0,0,.19,1.92,1.92,0,0,0,1.73,2.1h.2A1.93,1.93,0,0,0,177,35.34c0-.06,0-.13,0-.19a1.92,1.92,0,0,0-1.73-2.1Zm0,4a1.73,1.73,0,0,1-1.69-1.76s0-.1,0-.14a1.71,1.71,0,0,1,1.54-1.89h.14A1.72,1.72,0,0,1,176.76,35s0,.09,0,.14A1.73,1.73,0,0,1,175.22,37Z"/><g id="Grupo_4782" data-name="Grupo 4782"><path id="Trazado_13678" data-name="Trazado 13678" class="cls-1" d="M18.76,9.23a.7.7,0,0,1-.66-.49,5.6,5.6,0,0,0-5.5-4c-5.06,0-7,4.31-7,8.8,0,4.27,1.9,8.58,7,8.58,3.25,0,5.16-2.1,5.73-5.17a.7.7,0,0,1,.67-.58h4.1a.68.68,0,0,1,.69.68v.09A10.77,10.77,0,0,1,12.6,26.86C4.67,26.86,0,20.93,0,13.54,0,5.92,4.67,0,12.6,0,18,0,22.52,3,23.53,8.41a.69.69,0,0,1-.54.81H18.76Z"/><path id="Trazado_13679" data-name="Trazado 13679" class="cls-1" d="M39.52,22.11c5.06,0,7-4.3,7-8.58,0-4.48-1.9-8.79-7-8.79s-7,4.31-7,8.79c0,4.28,1.9,8.58,7,8.58M39.52,0c7.93,0,12.6,5.92,12.6,13.53,0,7.4-4.67,13.32-12.6,13.32s-12.6-5.92-12.6-13.32C26.92,5.92,31.59,0,39.52,0"/><path id="Trazado_13680" data-name="Trazado 13680" class="cls-1" d="M57,.61h4.53a.67.67,0,0,1,.58.32L72.6,17.81h.08V1.29a.68.68,0,0,1,.68-.68h3.91a.69.69,0,0,1,.69.68h0V25.56a.68.68,0,0,1-.69.68H72.7a.67.67,0,0,1-.58-.32L61.66,9.08h-.08V25.56a.67.67,0,0,1-.68.68H57a.67.67,0,0,1-.68-.68h0V1.29A.68.68,0,0,1,57,.61h0"/><path id="Trazado_13681" data-name="Trazado 13681" class="cls-1" d="M86.39,17.73a.68.68,0,0,1,.68.6c.29,3,2.81,4.14,5.64,4.14,2,0,5-.57,5-3.19S93.86,16.05,90.09,15s-7.64-2.47-7.64-7.28C82.45,2.51,87.4,0,92,0c5.13,0,9.87,2.15,10.24,7.55a.68.68,0,0,1-.64.71H97.45a.69.69,0,0,1-.67-.56c-.4-2.63-2.48-3.32-5-3.32-1.8,0-3.87.75-3.87,2.91,0,2,1.21,2.23,7.64,3.88,1.87.46,7.61,1.65,7.61,7.46,0,4.7-3.7,8.22-10.66,8.22-5.46,0-10.58-2.59-10.9-8.41a.68.68,0,0,1,.66-.7h4.13Z"/><path id="Trazado_13682" data-name="Trazado 13682" class="cls-1" d="M111.75,5.35h-6.31a.68.68,0,0,1-.68-.68h0V1.29a.68.68,0,0,1,.68-.68h19.63a.67.67,0,0,1,.68.68h0V4.66a.68.68,0,0,1-.68.69h-6.31a.69.69,0,0,0-.69.68V25.56a.68.68,0,0,1-.68.68h-4.27a.67.67,0,0,1-.68-.68h0V6a.69.69,0,0,0-.69-.68h0"/><path id="Trazado_13683" data-name="Trazado 13683" class="cls-1" d="M134.93,11.52a.69.69,0,0,0,.68.69h5.49c2.51,0,3.88-1.08,3.88-3.67S143.61,5,141.1,5h-5.49a.69.69,0,0,0-.68.69h0ZM129.29,1.29A.69.69,0,0,1,130,.61h13.13c4.6,0,7.5,3.2,7.5,7.07,0,3-1.22,5.28-4.05,6.43v.07c2.76.72,3.55,3.41,3.73,6a21.31,21.31,0,0,0,.63,5.16.68.68,0,0,1-.41.87.66.66,0,0,1-.23,0h-4.07a.65.65,0,0,1-.64-.45c-.51-1.6-.47-3.82-.73-5.69-.4-2.69-1.44-3.88-4.28-3.88h-4.95a.68.68,0,0,0-.68.69h0v8.65a.69.69,0,0,1-.69.68H130a.67.67,0,0,1-.68-.68h0Z"/><path id="Trazado_13684" data-name="Trazado 13684" class="cls-1" d="M177,16.55c0,6.93-4.09,10.3-10.95,10.3s-10.92-3.34-10.92-10.3V1.3a.69.69,0,0,1,.69-.69h4.27a.69.69,0,0,1,.68.68h0V16.55c0,2.8.72,5.57,5.28,5.57,4,0,5.31-1.77,5.31-5.57V1.3A.69.69,0,0,1,172,.61h4.26a.69.69,0,0,1,.69.69h0Z"/></g><path id="Trazado_13685" data-name="Trazado 13685" class="cls-1" d="M141,33a1.94,1.94,0,0,0-2,1.91,1.48,1.48,0,0,0,0,.21,1.94,1.94,0,0,0,1.78,2.08H141a1.93,1.93,0,0,0,2-1.89v-.19a1.94,1.94,0,0,0-1.76-2.11Zm0,3.46c-.8,0-1.09-.67-1.09-1.34s.3-1.38,1.09-1.38,1.08.68,1.08,1.38-.29,1.34-1.08,1.34Z"/><path id="Trazado_13686" data-name="Trazado 13686" class="cls-1" d="M158.49,36.2c0-.41-.15-.83-.59-.94h0a1,1,0,0,0,.64-1,1.1,1.1,0,0,0-1.09-1.11h-2.14a.11.11,0,0,0-.11.11h0V37a.11.11,0,0,0,.11.11H156a.11.11,0,0,0,.1-.11V35.69a.11.11,0,0,1,.11-.11H157c.45,0,.61.19.67.61a6.57,6.57,0,0,0,.12.89.1.1,0,0,0,.1.07h.63a.11.11,0,0,0,.11-.11,0,0,0,0,0,0,0A3.72,3.72,0,0,1,158.49,36.2ZM157.05,35h-.86a.11.11,0,0,1-.11-.11v-.91a.11.11,0,0,1,.11-.11h.86c.39,0,.6.17.6.56s-.21.57-.6.57Z"/></g></g></g></svg>