<svg xmlns="http://www.w3.org/2000/svg" viewBox="0 0 120.74 44.91"><defs><style>.cls-1{fill:#201d1e;}</style></defs><g id="Capa_2" data-name="Capa 2"><g id="Capa_1-2" data-name="Capa 1"><g id="Grupo_4778" data-name="Grupo 4778"><path id="Trazado_13650" data-name="Trazado 13650" class="cls-1" d="M.3.81H9.13C21.27.81,24.84,9.12,24.84,17.7c0,9.59-4.9,17-15.81,17H0l2.17-1.79H9.23c6.33,0,13.51-3.47,13.51-15.18,0-13.86-8.9-15.09-13.95-15.09H.29Z"/><path id="Trazado_13651" data-name="Trazado 13651" class="cls-1" d="M52.84,32.88v1.8H29.74V.81H52.6v1.8H31.84V16.18H51.35V18H31.84v14.9Z"/><path id="Trazado_13652" data-name="Trazado 13652" class="cls-1" d="M82.88,10.92C82,5.22,77,1.81,71.31,1.81c-8.9,0-14.09,7.26-14.09,15.94s5.19,15.94,14.09,15.94c6.62,0,11.76-5.88,12.14-12.19h2.1c-.76,8.06-6.76,14-14.24,14-10.19,0-16.18-7.83-16.18-17.74S61.13,0,71.31,0C83.36,0,84.93,10.44,85,10.92Z"/><path id="Trazado_13653" data-name="Trazado 13653" class="cls-1" d="M104.6,33.69c8.85,0,14-7.26,14-15.94S113.45,1.8,104.6,1.8s-14.09,7.27-14.09,16,5.18,15.94,14.09,15.94m0,1.8c-10.19,0-16.19-7.83-16.19-17.75S94.41,0,104.6,0s16.14,7.83,16.14,17.74-6,17.75-16.14,17.75"/></g><g id="Grupo_4780" data-name="Grupo 4780"><path id="Trazado_13654" data-name="Trazado 13654" class="cls-1" d="M84.49,40.68a.1.1,0,0,1-.09-.07.73.73,0,0,0-.73-.53c-.67,0-.92.57-.92,1.17s.25,1.14.92,1.14a.75.75,0,0,0,.76-.69.11.11,0,0,1,.09-.08h.55a.09.09,0,0,1,.09.09h0A1.43,1.43,0,0,1,83.67,43,1.65,1.65,0,0,1,82,41.41a1,1,0,0,1,0-.17,1.65,1.65,0,0,1,1.49-1.79h.18a1.38,1.38,0,0,1,1.45,1.12.09.09,0,0,1-.07.11h-.56Z"/><path id="Trazado_13655" data-name="Trazado 13655" class="cls-1" d="M87.21,39.45a1.65,1.65,0,0,1,1.68,1.62c0,.06,0,.12,0,.18A1.64,1.64,0,0,1,87.37,43h-.16a1.64,1.64,0,0,1-1.68-1.61v-.16A1.65,1.65,0,0,1,87,39.46h.18m0,2.94c.67,0,.92-.58.92-1.14s-.25-1.17-.92-1.17-.93.57-.93,1.17.25,1.14.93,1.14"/><path id="Trazado_13656" data-name="Trazado 13656" class="cls-1" d="M89.48,39.53h.6a.12.12,0,0,1,.08,0l1.39,2.24h0V39.62a.09.09,0,0,1,.09-.09h.52a.09.09,0,0,1,.09.09h0v3.22a.11.11,0,0,1-.09.1h-.61a.14.14,0,0,1-.08,0L90.1,40.66h0v2.18a.11.11,0,0,1-.09.1h-.52a.11.11,0,0,1-.1-.1V39.62a.1.1,0,0,1,.1-.09"/><path id="Trazado_13657" data-name="Trazado 13657" class="cls-1" d="M93.34,41.81a.07.07,0,0,1,.09.07c0,.4.38.55.75.55s.66-.07.66-.42-.51-.43-1-.56-1-.33-1-1a1.13,1.13,0,0,1,1.23-1h0c.68,0,1.31.29,1.36,1a.11.11,0,0,1-.08.1h-.56a.09.09,0,0,1-.09-.08c0-.35-.33-.44-.66-.44s-.52.1-.52.39.16.3,1,.51c.25.06,1,.22,1,1S95.08,43,94.15,43A1.29,1.29,0,0,1,92.7,41.9a.09.09,0,0,1,.09-.09h.55Z"/><path id="Trazado_13658" data-name="Trazado 13658" class="cls-1" d="M96.67,40.16h-.84a.09.09,0,0,1-.09-.09h0v-.45a.09.09,0,0,1,.09-.09h2.61a.09.09,0,0,1,.09.09v.45a.09.09,0,0,1-.09.09H97.6a.09.09,0,0,0-.09.09v2.59a.1.1,0,0,1-.09.1h-.57a.09.09,0,0,1-.09-.09h0V40.25a.09.09,0,0,0-.09-.09h0"/><path id="Trazado_13659" data-name="Trazado 13659" class="cls-1" d="M98.92,39.62a.09.09,0,0,1,.09-.09h1.75a.93.93,0,0,1,1,.87.17.17,0,0,1,0,.07.84.84,0,0,1-.54.85h0c.36.1.47.46.5.8a3.25,3.25,0,0,0,.08.69.09.09,0,0,1,0,.11h-.57a.1.1,0,0,1-.09-.06,6.31,6.31,0,0,1-.1-.76c0-.35-.19-.51-.57-.51h-.65a.09.09,0,0,0-.09.09v1.14a.11.11,0,0,1-.1.1H99a.09.09,0,0,1-.09-.09h0ZM99.67,41a.09.09,0,0,0,.09.09h.73c.33,0,.51-.14.51-.48s-.18-.48-.51-.48h-.73a.09.09,0,0,0-.09.09Z"/><path id="Trazado_13660" data-name="Trazado 13660" class="cls-1" d="M105.25,41.64A1.27,1.27,0,0,1,104.1,43a1,1,0,0,1-.3,0c-.92,0-1.45-.44-1.45-1.37v-2a.09.09,0,0,1,.09-.09H103a.09.09,0,0,1,.09.09v2c0,.37.1.74.7.74s.7-.23.7-.74v-2a.09.09,0,0,1,.09-.09h.57a.09.09,0,0,1,.09.09Z"/><path id="Trazado_13661" data-name="Trazado 13661" class="cls-1" d="M105.25,39.62a.09.09,0,0,1,.09-.09h.8a1.49,1.49,0,0,1,1.6,1.38,1.22,1.22,0,0,1,0,.33,1.51,1.51,0,0,1-1.32,1.7.87.87,0,0,1-.28,0h-.91l.19-.16.06,0h.68a1.33,1.33,0,0,0,1.37-1.53c0-1.4-.9-1.53-1.41-1.53h-.77a.09.09,0,0,1-.09-.09"/><path id="Trazado_13662" data-name="Trazado 13662" class="cls-1" d="M110.56,42.86h0a.09.09,0,0,1-.09.09h-2.15a.09.09,0,0,1-.09-.09V39.62a.09.09,0,0,1,.09-.09h2.13a.09.09,0,0,1,0,.18h-1.92a.09.09,0,0,0-.09.09V41a.09.09,0,0,0,.09.09h1.79a.09.09,0,0,1,.09.09h0a.09.09,0,0,1-.09.09h-1.79a.09.09,0,0,0-.09.09h0v1.32a.09.09,0,0,0,.09.09h1.94a.09.09,0,0,1,.09.09h0"/><path id="Trazado_13663" data-name="Trazado 13663" class="cls-1" d="M113.67,40.55a.1.1,0,0,1-.09-.07,1.13,1.13,0,0,0-1.16-.85A1.48,1.48,0,0,0,111,41.12s0,.08,0,.12a1.46,1.46,0,0,0,1.31,1.6h.11a1.28,1.28,0,0,0,1.22-1.15.11.11,0,0,1,.09-.08h0a.09.09,0,0,1,.09.09h0A1.48,1.48,0,0,1,112.42,43a1.65,1.65,0,0,1-1.64-1.63s0-.11,0-.16a1.64,1.64,0,0,1,1.47-1.79h.16a1.31,1.31,0,0,1,1.36,1,.09.09,0,0,1-.06.12h0Z"/><path id="Trazado_13664" data-name="Trazado 13664" class="cls-1" d="M115.79,43a1.64,1.64,0,0,1-1.65-1.62c0-.06,0-.11,0-.17a1.64,1.64,0,0,1,1.48-1.78h.16a1.65,1.65,0,0,1,1.64,1.63c0,.06,0,.11,0,.16A1.64,1.64,0,0,1,116,43h-.16m0-.18a1.45,1.45,0,0,0,1.42-1.49v-.12a1.46,1.46,0,0,0-1.31-1.6h-.11a1.46,1.46,0,0,0-1.43,1.49.49.49,0,0,0,0,.12,1.45,1.45,0,0,0,1.3,1.6h.12"/><g id="Grupo_4779" data-name="Grupo 4779"><path id="Trazado_13665" data-name="Trazado 13665" class="cls-1" d="M75.92,38.26a.63.63,0,0,0-.3-.07h-.06v-.1a2,2,0,0,1,.42,0l.49,0-.24.72-.28.89c0,.1-.09.3-.19.6l-.42,1.35.54-.72c.31-.38.5-.59.55-.64a1.54,1.54,0,0,1,.36-.25.63.63,0,0,1,.27-.06.31.31,0,0,1,.25.13.68.68,0,0,1,.14.41,2.29,2.29,0,0,1-.25,1,3.34,3.34,0,0,1-.7,1,2.92,2.92,0,0,1-.85.54,1.12,1.12,0,0,1-.51.15A.44.44,0,0,1,74.8,43a.37.37,0,0,1-.13-.28,2,2,0,0,1,.08-.48l.2-.7.74-2.23c.08-.28.17-.52.24-.73a.46.46,0,0,0,0-.2A.25.25,0,0,0,75.92,38.26ZM75.3,43a.44.44,0,0,0,.25-.08,2.4,2.4,0,0,0,.58-.52,4.21,4.21,0,0,0,.44-.58A4.79,4.79,0,0,0,77,41a1.52,1.52,0,0,0,.12-.53.22.22,0,0,0-.25-.23.41.41,0,0,0-.22.07,2.36,2.36,0,0,0-.56.53,9.16,9.16,0,0,0-.67.87,3.28,3.28,0,0,0-.25.58,2.16,2.16,0,0,0-.1.44.32.32,0,0,0,.07.19.21.21,0,0,0,.19.08Z"/><path id="Trazado_13666" data-name="Trazado 13666" class="cls-1" d="M76.25,44.6a.53.53,0,0,0,.14.11.44.44,0,0,0,.2,0,1.29,1.29,0,0,0,.47-.11,1.34,1.34,0,0,0,.4-.23,3.49,3.49,0,0,0,.56-.53,1.92,1.92,0,0,0,.29-.5,3.45,3.45,0,0,0,.18-.77,7.18,7.18,0,0,0,.06-.8c0-.13,0-.37,0-.72a2,2,0,0,0-.06-.49.39.39,0,0,0-.1-.19.08.08,0,0,0-.09,0,.18.18,0,0,0-.15.07,2,2,0,0,0-.26.62h0a.11.11,0,0,1-.09,0,6.13,6.13,0,0,1,.18-.61,1.9,1.9,0,0,1,.2-.34.49.49,0,0,1,.18-.11h.09a.38.38,0,0,1,.35.28,2.65,2.65,0,0,1,.19,1.08c0,.2,0,.45,0,.76s0,.44-.09.67-.07.33-.07.37l0-.05c.15-.23.29-.46.42-.7a3.41,3.41,0,0,0,.24-.6,4.74,4.74,0,0,0,.18-.72,2.59,2.59,0,0,0,0-.48v-.16a1,1,0,0,0,0-.11.45.45,0,0,1,.07-.28.13.13,0,0,1,.13,0A.17.17,0,0,1,80,40a.26.26,0,0,1,.05.17,4.55,4.55,0,0,1-.22.9,6.47,6.47,0,0,1-1.71,3,2.78,2.78,0,0,1-.88.63,2.09,2.09,0,0,1-.79.2,1.13,1.13,0,0,1-.62-.12c-.11-.08-.16-.15-.16-.23a.19.19,0,0,1,0-.13.2.2,0,0,1,.14-.06.9.9,0,0,1,.22.06A.73.73,0,0,1,76.25,44.6Z"/></g></g></g></g></svg>