<svg xmlns="http://www.w3.org/2000/svg" xmlns:xlink="http://www.w3.org/1999/xlink" viewBox="0 0 183.02 47.25"><defs><style>.cls-1{fill:url(#Degradado_sin_nombre_4);}.cls-2{fill:url(#Degradado_sin_nombre_4-2);}.cls-3{fill:url(#Degradado_sin_nombre_4-3);}.cls-4{fill:url(#Degradado_sin_nombre_4-4);}.cls-5{fill:#435761;}.cls-6,.cls-7,.cls-8{isolation:isolate;}.cls-7,.cls-8{font-size:8px;fill:#3f4c51;}.cls-7{font-family:Avenir-Book, Avenir;}.cls-8{font-family:Avenir-Black, Avenir;font-weight:800;}.cls-9{fill:url(#Degradado_sin_nombre_6);}.cls-10{fill:url(#Degradado_sin_nombre_6-2);}</style><linearGradient id="Degradado_sin_nombre_4" x1="-1413.13" y1="-882.28" x2="-1410.53" y2="-880.07" gradientTransform="matrix(16.41, 0, 0, -19.33, 23188.02, -17009.75)" gradientUnits="userSpaceOnUse"><stop offset="0" stop-color="#fc7315"/><stop offset="1" stop-color="#f25d28"/></linearGradient><linearGradient id="Degradado_sin_nombre_4-2" x1="-1379.65" y1="-855.53" x2="-1372.55" y2="-852.88" gradientTransform="matrix(10.39, 0, 0, -27.93, 14364.39, -23867.31)" xlink:href="#Degradado_sin_nombre_4"/><linearGradient id="Degradado_sin_nombre_4-3" x1="-1418.1" y1="-880.95" x2="-1416.37" y2="-879.28" gradientTransform="matrix(18.54, 0, 0, -19.32, 26341.02, -17005.42)" xlink:href="#Degradado_sin_nombre_4"/><linearGradient id="Degradado_sin_nombre_4-4" x1="-1291.03" y1="-858.93" x2="-1257.78" y2="-853.47" gradientTransform="matrix(4.61, 0, 0, -28.09, 5841.42, -23996.44)" xlink:href="#Degradado_sin_nombre_4"/><linearGradient id="Degradado_sin_nombre_6" x1="-1437.36" y1="-847.16" x2="-1436.52" y2="-846.41" gradientTransform="matrix(29.27, 0, 0, -32.79, 42224.67, -27744.77)" gradientUnits="userSpaceOnUse"><stop offset="0" stop-color="#f25d28"/><stop offset="1" stop-color="#fc7315"/></linearGradient><linearGradient id="Degradado_sin_nombre_6-2" x1="-1402.75" y1="-913.64" x2="-1402.04" y2="-912.93" gradientTransform="matrix(14.03, 0, 0, -14.03, 19838.43, -12792.35)" xlink:href="#Degradado_sin_nombre_6"/></defs><g id="Capa_2" data-name="Capa 2"><g id="Capa_1-2" data-name="Capa 1"><g id="Grupo_4777" data-name="Grupo 4777"><g id="Grupo_4772" data-name="Grupo 4772"><g id="Grupo_4771" data-name="Grupo 4771"><g id="Grupo_4768" data-name="Grupo 4768"><path id="Trazado_13641" data-name="Trazado 13641" class="cls-1" d="M22.75,15.13a4.9,4.9,0,0,0-1.88-1.19,6.65,6.65,0,0,0-2.38-.4,7,7,0,0,0-3.6.81,6,6,0,0,0-2.23,2.41.14.14,0,0,1-.14.07.14.14,0,0,1-.09-.12V13.54H8V32.86h4.61V22.06c0-3,1.31-4.5,3.9-4.5a3.3,3.3,0,0,1,2.51.81,4.63,4.63,0,0,1,.74,3.07V32.86h4.65V19.77A7.26,7.26,0,0,0,24,17.08,5.64,5.64,0,0,0,22.75,15.13Z"/><path id="Trazado_13642" data-name="Trazado 13642" class="cls-2" d="M35.39,12.09h-3a.12.12,0,0,1-.12-.12,6.28,6.28,0,0,1,.13-1.44,2.08,2.08,0,0,1,.5-1,2,2,0,0,1,1-.54,6.84,6.84,0,0,1,1.42-.14V4.93c-5.08,0-7.56,2.34-7.56,7a.12.12,0,0,1-.12.12H25V15.5h2.6a.12.12,0,0,1,.12.13V32.86h4.54V15.63a.12.12,0,0,1,.12-.13h3Z"/><path id="Trazado_13643" data-name="Trazado 13643" class="cls-3" d="M53.12,19.2a8.64,8.64,0,0,0-1.85-3,8.2,8.2,0,0,0-2.89-1.93,10,10,0,0,0-3.83-.69,10.34,10.34,0,0,0-3.89.69,8.36,8.36,0,0,0-2.93,1.95,8.56,8.56,0,0,0-1.86,3.05,12.48,12.48,0,0,0,0,7.89,8.53,8.53,0,0,0,1.83,3.06,8.29,8.29,0,0,0,2.92,2,10.46,10.46,0,0,0,3.95.71,10.32,10.32,0,0,0,3.81-.69,8.14,8.14,0,0,0,2.91-2,8.52,8.52,0,0,0,1.84-3,11.5,11.5,0,0,0,.65-4A11.76,11.76,0,0,0,53.12,19.2ZM44.55,29C41.52,29,40,27,40,23.2s1.54-5.74,4.57-5.74,4.56,1.93,4.56,5.74S47.58,29,44.55,29Z"/><rect id="Rectángulo_1868" data-name="Rectángulo 1868" class="cls-4" y="4.77" width="4.61" height="28.09"/></g><g id="Grupo_4770" data-name="Grupo 4770"><g id="Grupo_4769" data-name="Grupo 4769"><path id="Trazado_13644" data-name="Trazado 13644" class="cls-5" d="M120.52,32.85a8.53,8.53,0,0,0,3.24-.58A5.94,5.94,0,0,0,126,30.74a.13.13,0,0,1,.22.06,13.8,13.8,0,0,0,.27,2h4.3V20.74a11,11,0,0,0-.41-3.08,5.35,5.35,0,0,0-1.3-2.26A5.76,5.76,0,0,0,126.69,14a12,12,0,0,0-3.63-.49,12.83,12.83,0,0,0-3.7.47,6.36,6.36,0,0,0-2.44,1.31,5.07,5.07,0,0,0-1.35,2,8.43,8.43,0,0,0-.46,2.49h4.29a3.63,3.63,0,0,1,.93-2,3.39,3.39,0,0,1,2.5-.8,4.55,4.55,0,0,1,2.32.53,1.86,1.86,0,0,1,.64,2.54,1.94,1.94,0,0,1-.42.48,6.41,6.41,0,0,1-2.52.72c-1.22.18-2.35.37-3.37.59a8.19,8.19,0,0,0-2.63,1,4.6,4.6,0,0,0-1.71,1.82,6.67,6.67,0,0,0-.62,3.14,4.79,4.79,0,0,0,1.43,3.6A6.46,6.46,0,0,0,120.52,32.85ZM120,25.44a6.85,6.85,0,0,1,2.93-1.08,20.19,20.19,0,0,0,2-.49,2.55,2.55,0,0,0,1-.57.12.12,0,0,1,.14,0,.11.11,0,0,1,.07.11l0,2a3.64,3.64,0,0,1-.36,1.61,4.4,4.4,0,0,1-2.38,2.21,4.93,4.93,0,0,1-1.78.33c-1.64,0-2.48-.74-2.48-2.19a2.36,2.36,0,0,1,.83-1.93Z"/><path id="Trazado_13645" data-name="Trazado 13645" class="cls-5" d="M74.72,7.63a9.81,9.81,0,0,0-3.2-2,12,12,0,0,0-8.91.26A10,10,0,0,0,59,8.69a13.18,13.18,0,0,0-2.27,4.5,21.21,21.21,0,0,0-.8,6,18.43,18.43,0,0,0,.87,5.94A12.63,12.63,0,0,0,59.2,29.4,9.73,9.73,0,0,0,62.79,32a11.72,11.72,0,0,0,4.49.86,10.41,10.41,0,0,0,3.91-.7,9.69,9.69,0,0,0,3.12-2A11.08,11.08,0,0,0,76.54,27a15.5,15.5,0,0,0,1.27-3.92H72.87a7.3,7.3,0,0,1-1.94,3.8,5.27,5.27,0,0,1-3.8,1.36,5.11,5.11,0,0,1-4.64-2.5,16.25,16.25,0,0,1,0-13.8,5.34,5.34,0,0,1,4.88-2.55,5.27,5.27,0,0,1,3.44,1.28,6.39,6.39,0,0,1,2,3.49h5a11.33,11.33,0,0,0-1-3.56A9.67,9.67,0,0,0,74.72,7.63Z"/><path id="Trazado_13646" data-name="Trazado 13646" class="cls-5" d="M84.76,32.85A8.51,8.51,0,0,0,88,32.27a5.86,5.86,0,0,0,2.23-1.53.13.13,0,0,1,.14,0,.12.12,0,0,1,.08.1,13.8,13.8,0,0,0,.27,2H95V20.74a11,11,0,0,0-.4-3.08,5.35,5.35,0,0,0-1.3-2.26A5.83,5.83,0,0,0,90.93,14a12.11,12.11,0,0,0-3.64-.49,12.87,12.87,0,0,0-3.7.47,6.32,6.32,0,0,0-2.43,1.31,4.9,4.9,0,0,0-1.35,2,8.43,8.43,0,0,0-.46,2.49h4.29a3.63,3.63,0,0,1,.93-2,3.39,3.39,0,0,1,2.5-.8,4.55,4.55,0,0,1,2.32.53A1.86,1.86,0,0,1,90,20.14a1.79,1.79,0,0,1-.43.48,6.31,6.31,0,0,1-2.51.72c-1.22.18-2.35.37-3.37.59a8,8,0,0,0-2.63,1,4.6,4.6,0,0,0-1.71,1.82,6.8,6.8,0,0,0-.63,3.14,4.8,4.8,0,0,0,1.44,3.6A6.45,6.45,0,0,0,84.76,32.85Zm-.57-7.41a6.85,6.85,0,0,1,2.93-1.08,20.19,20.19,0,0,0,2-.49,2.55,2.55,0,0,0,1-.57.12.12,0,0,1,.21.08l0,2A3.64,3.64,0,0,1,90,27a4.4,4.4,0,0,1-2.38,2.21,4.93,4.93,0,0,1-1.78.33c-1.64,0-2.48-.74-2.48-2.19a2.36,2.36,0,0,1,.83-1.93Z"/><path id="Trazado_13647" data-name="Trazado 13647" class="cls-5" d="M96.75,26.63A5.79,5.79,0,0,0,99,31.07a10.18,10.18,0,0,0,6.44,1.78,9.39,9.39,0,0,0,5.91-1.6,5.38,5.38,0,0,0,2-4.44,4.56,4.56,0,0,0-.77-2.78,5.14,5.14,0,0,0-2.19-1.6,21.55,21.55,0,0,0-2.48-.77c-.93-.23-1.94-.51-3-.81a10.72,10.72,0,0,1-2.27-.86,1.53,1.53,0,0,1-.8-1.37,1.36,1.36,0,0,1,.81-1.29,5.3,5.3,0,0,1,2.19-.37,4.56,4.56,0,0,1,2.53.57,2.71,2.71,0,0,1,1,1.89h4.44a6,6,0,0,0-2-4.37c-1.23-1-3.18-1.52-5.8-1.52a13.53,13.53,0,0,0-3.53.41,6.92,6.92,0,0,0-2.37,1.13,4.23,4.23,0,0,0-1.31,1.71,5.82,5.82,0,0,0-.4,2.15,5.28,5.28,0,0,0,.5,2.25A4.52,4.52,0,0,0,99.68,23,9.5,9.5,0,0,0,102,24.1c.94.3,2.19.64,3.73,1a11.36,11.36,0,0,1,2.1.73,1.53,1.53,0,0,1,.94,1.5,1.62,1.62,0,0,1-1,1.6,5.62,5.62,0,0,1-2.33.44,4.85,4.85,0,0,1-2.87-.74,2.45,2.45,0,0,1-1-2Z"/><path id="Trazado_13648" data-name="Trazado 13648" class="cls-5" d="M134.8,31.07a10.16,10.16,0,0,0,6.44,1.78,9.41,9.41,0,0,0,5.91-1.6,5.4,5.4,0,0,0,2-4.44,4.49,4.49,0,0,0-.76-2.78,5.14,5.14,0,0,0-2.19-1.6,21.55,21.55,0,0,0-2.48-.77c-.93-.23-1.94-.51-3-.81a10.72,10.72,0,0,1-2.27-.86,1.52,1.52,0,0,1-.81-1.37,1.35,1.35,0,0,1,.82-1.29,5.22,5.22,0,0,1,2.18-.37,4.61,4.61,0,0,1,2.54.57,2.75,2.75,0,0,1,1,1.89h4.43a6,6,0,0,0-2-4.37c-1.23-1-3.18-1.52-5.8-1.52a13.6,13.6,0,0,0-3.54.41,7,7,0,0,0-2.36,1.13,4.23,4.23,0,0,0-1.31,1.71,5.62,5.62,0,0,0-.4,2.15,5,5,0,0,0,.5,2.25A4.52,4.52,0,0,0,135.44,23a9.5,9.5,0,0,0,2.36,1.08c.94.3,2.19.64,3.73,1a11.36,11.36,0,0,1,2.1.73,1.54,1.54,0,0,1,.94,1.5,1.62,1.62,0,0,1-1,1.6,5.65,5.65,0,0,1-2.33.44,4.85,4.85,0,0,1-2.87-.74,2.42,2.42,0,0,1-1.05-2h-4.76A5.82,5.82,0,0,0,134.8,31.07Z"/></g></g></g></g><g id="Grupo_4775" data-name="Grupo 4775"><g id="Grupo_4774" data-name="Grupo 4774"><g id="Grupo_4773" data-name="Grupo 4773"><g id="Si_está_disponible_está_aquí." data-name="Si está disponible está aquí." class="cls-6"><text class="cls-7" transform="translate(0 43.6)">Si está disponible, </text><text class="cls-8" transform="translate(67.4 43.6)">está aquí.</text></g></g></g></g><g id="Grupo_4776" data-name="Grupo 4776"><path id="Trazado_13649" data-name="Trazado 13649" class="cls-9" d="M182.15,10.51,169.87.53a2.34,2.34,0,0,0-3,0l-12.28,10a2.36,2.36,0,0,0-.87,1.83v18.1a2.36,2.36,0,0,0,2.36,2.35h24.7l-7.31-8.2a8.78,8.78,0,1,1,1.55-1.41l7.61,8.52a2.34,2.34,0,0,0,.36-1.26V12.34A2.36,2.36,0,0,0,182.15,10.51Z"/><circle id="Elipse_397" data-name="Elipse 397" class="cls-10" cx="168.39" cy="17.44" r="7.01"/></g></g></g></g></svg>