<?xml version="1.0" encoding="utf-8"?>
<!-- Generator: Adobe Illustrator 25.4.1, SVG Export Plug-In . SVG Version: 6.00 Build 0)  -->
<svg version="1.1" id="Capa_1" xmlns="http://www.w3.org/2000/svg" xmlns:xlink="http://www.w3.org/1999/xlink" x="0px" y="0px"
	 viewBox="0 0 85 12.5" style="enable-background:new 0 0 85 12.5;" xml:space="preserve">
<style type="text/css">
	.st0{fill-rule:evenodd;clip-rule:evenodd;fill:#FBB91C;}
	.st1{fill-rule:evenodd;clip-rule:evenodd;fill:#FFFFFF;}
	.st2{fill:#FFFFFF;}
</style>
<g id="Capa_2_00000165207160120397304300000009245559813563288738_">
	<g id="Capa_1-2">
		<path class="st0" d="M0,12.5c0.7-3.3,7.8-1.9,10.1-4.5c0.8-1.2,0.8-2.8,0.1-4C9.6,3.1,8.7,2.6,7.8,2.6c-1.5-0.2-3-0.2-4.5,0
			C1.2,2.9,0,4.1,0,6.5C0,6.9,0,12.5,0,12.5"/>
		<path class="st1" d="M45.4,0c-1.4,0.2-1.8,1-1.8,1.6v10.6h1.9V0H45.4z"/>
		<path class="st1" d="M32.9,0h-0.1c-0.4,0-0.8,0.1-1.1,0.4C31.2,0.6,31,1.1,31,1.6v1h-1.4V4H31v6c0,0.1,0,0.3,0.1,0.6
			c0.1,0.3,0.3,0.6,0.5,0.8c0.3,0.3,0.7,0.5,1.1,0.7c0.6,0.2,1.3,0.3,2,0.3h0.1v-1.5h-0.2c-0.3,0-0.6,0-0.8-0.1
			c-0.2-0.1-0.3-0.2-0.5-0.3c-0.1-0.1-0.2-0.2-0.3-0.4c0-0.1,0-0.2,0-0.3V4h1.8V2.6H33V0H32.9z"/>
		<path class="st1" d="M28.8,3.3c-0.3-0.3-0.7-0.5-1.1-0.6c-0.6-0.2-1.3-0.3-2-0.3c-0.7,0-1.4,0.1-2,0.3c-0.4,0.1-0.8,0.4-1.1,0.6
			c-0.2,0.2-0.4,0.5-0.5,0.8C22,4.3,22,4.5,22,4.7v7.6h0.1c1,0.1,1.8-0.7,1.9-1.6V5c0-0.1,0-0.2,0.1-0.3c0-0.1,0.1-0.2,0.2-0.3
			c0.2-0.1,0.3-0.2,0.5-0.3C25.1,4,25.4,4,25.8,4c0.3,0,0.6,0,0.9,0.1c0.2,0.1,0.3,0.1,0.5,0.3c0.1,0.1,0.2,0.2,0.2,0.3
			c0,0.1,0,0.2,0,0.3v7.2h1.9V4.7c0-0.2,0-0.4-0.1-0.6C29.1,3.8,28.9,3.6,28.8,3.3"/>
		<path class="st1" d="M37.3,5.3c0-0.4,0.1-0.7,0.4-1c0.4-0.3,0.9-0.5,1.5-0.4c0.5-0.1,1,0.1,1.4,0.3c0.3,0.3,0.4,0.6,0.4,1
			c0,0.2,0,0.5-0.2,0.7c-0.1,0.2-0.2,0.3-0.3,0.4c-0.2,0.1-0.4,0.2-0.6,0.3c-0.4,0.1-1.9,0.2-2.1,0.2c-0.1,0-0.2,0.1-0.3,0.1
			c-0.1,0.1-0.2,0.1-0.2,0.3L37.3,5.3L37.3,5.3z M36.3,11.8c0.8,0.5,1.8,0.7,2.7,0.6c0.5,0,1.1,0,1.6-0.2c0.4-0.1,0.8-0.3,1.1-0.5
			c0.3-0.2,0.5-0.5,0.7-0.8c0.1-0.3,0.2-0.6,0.2-0.9V9.6h-1.8v0.1c0,0.3-0.1,0.6-0.3,0.9c-0.4,0.3-0.9,0.4-1.4,0.3
			c-0.3,0-0.5,0-0.8-0.1c-0.2,0-0.4-0.1-0.5-0.3c-0.1-0.1-0.2-0.2-0.3-0.3c0-0.1-0.1-0.2-0.1-0.3V9.4c0-0.2,0-0.3,0.1-0.5
			c0-0.1,0.1-0.3,0.2-0.4c0.1-0.1,0.2-0.1,0.2-0.2c0.1-0.1,0.2-0.1,0.3-0.1c0.1-0.1,0.3-0.1,0.4-0.1c0.2,0,2.3-0.3,2.5-0.4
			c0.5-0.1,0.9-0.4,1.2-0.8c0.3-0.4,0.4-0.9,0.4-1.5V4.6c0-0.3,0-0.5-0.2-0.7c-0.1-0.3-0.3-0.6-0.5-0.8c-0.3-0.3-0.7-0.4-1.1-0.5
			c-0.6-0.2-1.2-0.2-1.8-0.2c-0.6,0-1.2,0.1-1.8,0.2c-0.4,0.1-0.8,0.3-1.1,0.5c-0.2,0.2-0.4,0.5-0.6,0.8c-0.1,0.2-0.1,0.5-0.1,0.7
			V10C35.4,10.7,35.7,11.4,36.3,11.8z"/>
		<path class="st1" d="M18.9,9.5c0,0.4-0.1,0.7-0.4,1c-0.4,0.3-0.9,0.4-1.4,0.4c-0.5,0.1-1-0.1-1.4-0.3c-0.3-0.3-0.4-0.6-0.4-1
			c0-0.2,0-0.5,0.1-0.7c0.1-0.2,0.2-0.3,0.3-0.4c0.2-0.1,0.3-0.2,0.6-0.3c0.4-0.1,1.9-0.1,2.1-0.2c0.1,0,0.2-0.1,0.3-0.1
			c0.1-0.1,0.2-0.2,0.2-0.3L18.9,9.5L18.9,9.5z M19.9,3.1c-0.8-0.5-1.8-0.7-2.7-0.6c-0.5,0-1.1,0-1.6,0.2c-0.4,0.1-0.8,0.3-1.1,0.5
			c-0.3,0.2-0.5,0.4-0.7,0.7c-0.1,0.3-0.2,0.6-0.2,0.9v0.5h1.8V5.2c0-0.3,0.1-0.6,0.3-0.9c0.4-0.3,0.9-0.4,1.4-0.3
			c0.3,0,0.5,0,0.8,0.1c0.2,0,0.4,0.1,0.5,0.3c0.1,0.1,0.2,0.2,0.3,0.3c0,0.1,0.1,0.2,0.1,0.3v0.4c0,0.2,0,0.3-0.1,0.5
			c0,0.1-0.1,0.3-0.2,0.4c-0.1,0.1-0.1,0.2-0.2,0.2c-0.1,0-0.2,0.1-0.3,0.1c-0.1,0.1-0.3,0.1-0.4,0.1c-0.2,0-2.3,0.3-2.5,0.4
			c-0.5,0.1-0.9,0.4-1.2,0.8c-0.3,0.4-0.4,0.9-0.4,1.4v0.9c0,0.3,0,0.5,0.1,0.7c0.1,0.3,0.3,0.6,0.6,0.8c0.3,0.3,0.7,0.5,1.1,0.6
			c0.6,0.2,1.2,0.2,1.8,0.2c0.6,0,1.2-0.1,1.8-0.2c0.4-0.1,0.8-0.3,1.1-0.6c0.2-0.2,0.4-0.5,0.6-0.8c0.1-0.2,0.1-0.5,0.1-0.7V4.7
			C20.8,4.1,20.4,3.5,19.9,3.1z"/>
		<path class="st2" d="M76.2,3.3c-0.3-0.3-0.6-0.5-1-0.6c-0.6-0.2-1.2-0.3-1.8-0.3c-0.6,0-1.3,0.1-1.8,0.3c-0.4,0.1-0.8,0.3-1.1,0.6
			C70.2,3.5,70.1,3.7,70,4c-0.1,0.2-0.1,0.4-0.1,0.6v7.7c0.7,0,1.3-0.6,1.3-1.3V4.8c0-0.1,0-0.3,0.1-0.4c0.1-0.2,0.2-0.3,0.3-0.4
			c0.2-0.1,0.4-0.2,0.6-0.3c0.3-0.1,0.7-0.2,1.1-0.2c0.6,0,1.2,0.1,1.7,0.5c0.1,0.1,0.2,0.3,0.3,0.4c0,0.1,0.1,0.3,0.1,0.4v7.4h1.3
			V4.6c0-0.2-0.1-0.4-0.1-0.6C76.5,3.7,76.3,3.5,76.2,3.3"/>
		<path class="st2" d="M57.3,4c-0.1,0.2-0.1,0.4-0.1,0.6v7.7h1.3V4.8c0-0.1,0-0.3,0.1-0.4c0.1-0.2,0.2-0.3,0.3-0.4
			c0.2-0.2,0.4-0.3,0.6-0.3c0.3-0.1,0.7-0.1,1-0.2V2.4c-0.6,0-1.2,0-1.8,0.2C58.3,2.8,58,3,57.6,3.3C57.5,3.5,57.3,3.7,57.3,4"/>
		<path class="st2" d="M54.6,3c-0.8-0.5-1.7-0.7-2.6-0.6c-0.5,0-1.1,0-1.6,0.2c-0.4,0.1-0.8,0.2-1.1,0.5c-0.3,0.2-0.5,0.4-0.6,0.7
			c-0.1,0.3-0.2,0.5-0.2,0.8v0.3h1.4c0-0.4,0.2-0.7,0.4-1c0.5-0.3,1.1-0.5,1.7-0.4h0.1c0.3,0,0.6,0,0.9,0.1c0.2,0.1,0.4,0.2,0.6,0.3
			C53.8,4,53.9,4.1,54,4.3c0.1,0.2,0.1,0.3,0.1,0.5v0.5c0,0.2,0,0.4-0.1,0.6V6c0,0.2-0.1,0.3-0.2,0.4c-0.1,0.1-0.2,0.2-0.3,0.2
			c-0.1,0.1-0.2,0.1-0.3,0.1c-0.2,0.1-0.3,0.1-0.5,0.1c-0.1,0-0.3,0-0.5,0.1C51.6,7,50.2,7.2,50,7.2c-0.5,0.1-0.9,0.4-1.2,0.8
			c-0.3,0.4-0.4,0.9-0.4,1.4V10c0,0.3,0,0.6,0.1,0.9c0.1,0.3,0.3,0.5,0.5,0.7c0.3,0.2,0.7,0.4,1.1,0.5c0.6,0.2,1.2,0.2,1.8,0.2
			c0.6,0,1.2-0.1,1.8-0.2c0.3-0.1,0.7-0.3,0.9-0.6c0.2-0.2,0.4-0.4,0.5-0.7c0.1-0.2,0.1-0.5,0.1-0.7V4.6C55.4,3.9,55.1,3.4,54.6,3z
			 M54.1,9.6c0,0.5-0.1,1-0.5,1.3c-0.5,0.4-1.1,0.5-1.7,0.4c-0.6,0.1-1.2-0.1-1.7-0.4c-0.3-0.3-0.5-0.8-0.5-1.3
			c0-0.3,0.1-0.6,0.2-0.8c0.1-0.2,0.2-0.4,0.4-0.5C50.5,8.1,50.7,8,50.9,8c0.2,0,0.7-0.1,1.2-0.1c0.4,0,0.7-0.1,1.1-0.2
			c0.3,0,0.5-0.2,0.7-0.3l0.1-0.1L54.1,9.6L54.1,9.6z"/>
		<path class="st2" d="M62.3,11.8c0.8,0.5,1.7,0.7,2.6,0.6c0.5,0,1,0,1.6-0.2c0.4-0.1,0.8-0.2,1.1-0.5c0.3-0.2,0.5-0.4,0.6-0.7
			c0.1-0.3,0.2-0.5,0.2-0.8V10H67c0,0.4-0.2,0.7-0.4,1c-0.5,0.3-1,0.5-1.6,0.4h-0.1c-0.3,0-0.6,0-0.9-0.1c-0.2-0.1-0.4-0.2-0.6-0.3
			c-0.2-0.1-0.3-0.3-0.4-0.4c-0.1-0.1-0.1-0.3-0.1-0.5V9.6c0-0.2,0-0.4,0.1-0.6V8.9c0-0.2,0.1-0.3,0.2-0.4c0.1-0.1,0.2-0.2,0.3-0.2
			c0.1-0.1,0.2-0.1,0.3-0.1C64,8,64.1,8,64.3,8c0.1,0,0.3,0,0.5-0.1l2.1-0.3c0.4-0.1,0.8-0.4,1.1-0.8c0.3-0.4,0.4-0.9,0.4-1.4V4.8
			c0-0.3,0-0.6-0.1-0.9c-0.1-0.3-0.3-0.5-0.5-0.7c-0.3-0.2-0.7-0.4-1.1-0.5c-0.6-0.2-1.2-0.2-1.8-0.2c-0.6,0-1.2,0.1-1.8,0.2
			c-0.3,0.1-0.7,0.3-0.9,0.6c-0.2,0.2-0.4,0.4-0.5,0.7c-0.1,0.2-0.1,0.5-0.2,0.7v5.7C61.5,10.9,61.8,11.4,62.3,11.8z M62.8,5.2
			c0-0.5,0.1-1,0.5-1.3c0.5-0.4,1.1-0.5,1.7-0.5c0.6-0.1,1.2,0.1,1.7,0.5c0.3,0.3,0.5,0.8,0.5,1.3c0,0.3-0.1,0.6-0.2,0.8
			c-0.1,0.2-0.2,0.4-0.4,0.5c-0.2,0.2-0.4,0.3-0.7,0.3c-0.2,0-0.7,0.1-1.2,0.2C64.4,7,64,7,63.7,7.1c-0.3,0-0.5,0.1-0.7,0.3
			l-0.1,0.1L62.8,5.2L62.8,5.2z"/>
		<path class="st2" d="M84.2,3c-0.8-0.5-1.7-0.7-2.6-0.6c-0.5,0-1,0-1.6,0.2c-0.4,0.1-0.8,0.3-1.1,0.5c-0.3,0.2-0.5,0.4-0.6,0.7
			c-0.1,0.3-0.2,0.5-0.2,0.8v0.3h1.4c0-0.4,0.2-0.7,0.4-1c0.5-0.3,1-0.5,1.6-0.5h0.1c0.3,0,0.6,0,0.9,0.1c0.2,0.1,0.4,0.2,0.6,0.3
			c0.1,0.1,0.3,0.3,0.4,0.4c0.1,0.2,0.1,0.3,0.1,0.5v0.5c0,0.2,0,0.4-0.1,0.6v0.1c0,0.2-0.1,0.3-0.2,0.4c-0.1,0.1-0.2,0.2-0.3,0.2
			l-0.3,0.1c-0.1,0.1-0.3,0.1-0.5,0.1l-0.5,0.1c-0.5,0.1-1.9,0.3-2.1,0.3c-0.5,0.1-0.9,0.4-1.2,0.8c-0.3,0.4-0.4,0.9-0.4,1.4V10
			c0,0.3,0,0.6,0.1,0.9c0.1,0.3,0.3,0.5,0.5,0.7c0.3,0.2,0.7,0.4,1.1,0.5c0.6,0.2,1.2,0.2,1.8,0.2c0.6,0,1.2-0.1,1.8-0.2
			c0.3-0.1,0.7-0.3,0.9-0.6c0.2-0.2,0.4-0.4,0.5-0.7c0.1-0.2,0.1-0.5,0.2-0.7V4.6C85,3.9,84.7,3.3,84.2,3z M83.7,9.6
			c0,0.5-0.1,1-0.5,1.3c-0.5,0.4-1.1,0.5-1.7,0.4c-0.6,0.1-1.2-0.1-1.7-0.4c-0.3-0.3-0.5-0.8-0.5-1.3c0-0.3,0.1-0.6,0.2-0.8
			c0.1-0.2,0.2-0.4,0.4-0.5C80.1,8.1,80.3,8,80.6,8c0.2,0,0.7-0.1,1.2-0.1c0.4,0,0.7-0.1,1.1-0.2c0.3,0,0.5-0.2,0.7-0.3l0.1-0.1
			L83.7,9.6L83.7,9.6z"/>
	</g>
</g>
</svg>
