<svg xmlns="http://www.w3.org/2000/svg" viewBox="0 0 135.52 30.54"><defs><style>.cls-1{fill:#fff;}</style></defs><g id="Capa_2" data-name="Capa 2"><g id="Capa_1-2" data-name="Capa 1"><path id="Trazado_13713" data-name="Trazado 13713" class="cls-1" d="M101.24,27a5.95,5.95,0,0,1-1.57,2.76,2.73,2.73,0,0,1-.81.58,1.83,1.83,0,0,1-.73.18,1,1,0,0,1-.56-.11c-.1-.07-.16-.14-.16-.21a.18.18,0,0,1,0-.12.21.21,0,0,1,.13-.05.46.46,0,0,1,.2.05.8.8,0,0,1,.17.15.41.41,0,0,0,.13.1.37.37,0,0,0,.18,0,1,1,0,0,0,.43-.1,1.23,1.23,0,0,0,.37-.21,2.9,2.9,0,0,0,.51-.48,1.47,1.47,0,0,0,.27-.47,2.73,2.73,0,0,0,.17-.71,6,6,0,0,0,0-.74c0-.12,0-.34,0-.66a2.32,2.32,0,0,0-.06-.45.31.31,0,0,0-.09-.17.13.13,0,0,0-.08,0,.15.15,0,0,0-.14.07,1.47,1.47,0,0,0-.24.56h0a.18.18,0,0,1-.09,0,5.22,5.22,0,0,1,.18-.56,1.23,1.23,0,0,1,.19-.31.44.44,0,0,1,.16-.1h.08c.14,0,.24.09.32.26a2.23,2.23,0,0,1,.17,1,6.83,6.83,0,0,1,0,.7,4.25,4.25,0,0,1-.08.61,3.28,3.28,0,0,0-.07.35l0-.05c.14-.21.26-.42.38-.64a3.76,3.76,0,0,0,.23-.55,5.28,5.28,0,0,0,.16-.66,3.15,3.15,0,0,0,0-.44v-.25a.36.36,0,0,1,.06-.25.13.13,0,0,1,.13-.05.14.14,0,0,1,.13.05.2.2,0,0,1,0,.15A4.57,4.57,0,0,1,101.24,27Z"/><path id="Trazado_13714" data-name="Trazado 13714" class="cls-1" d="M104.75,28.81a1.5,1.5,0,0,1-1.53-1.47.66.66,0,0,1,0-.14,1.49,1.49,0,0,1,1.35-1.63h.17a1.28,1.28,0,0,1,1.33,1,.11.11,0,0,1-.07.1h-.52a.1.1,0,0,1-.08-.06.69.69,0,0,0-.66-.49c-.62,0-.85.52-.85,1.07s.24,1,.85,1a.69.69,0,0,0,.69-.63.08.08,0,0,1,.08-.07h.5a.08.08,0,0,1,.08.08h0A1.3,1.3,0,0,1,104.75,28.81Z"/><path id="Trazado_13715" data-name="Trazado 13715" class="cls-1" d="M112.58,28.65a.08.08,0,0,1-.08.08h-.56a.11.11,0,0,1-.07,0l-1.26-2h0v2a.08.08,0,0,1-.08.08H110a.08.08,0,0,1-.08-.08V25.71a.09.09,0,0,1,.08-.08h.55a.08.08,0,0,1,.07,0l1.27,2h0v-2a.09.09,0,0,1,.08-.08h.48a.09.09,0,0,1,.08.08h0Z"/><path id="Trazado_13716" data-name="Trazado 13716" class="cls-1" d="M114.3,28.81c-.66,0-1.28-.32-1.32-1a.08.08,0,0,1,.08-.08h.5a.08.08,0,0,1,.08.07c0,.36.34.5.69.5s.6-.07.6-.39-.47-.39-.92-.51-.93-.3-.93-.88a1,1,0,0,1,1.12-.95h0c.62,0,1.19.25,1.24.91a.09.09,0,0,1-.08.09h-.5a.08.08,0,0,1-.08-.07c0-.32-.3-.4-.61-.4s-.47.09-.47.35.15.27.92.47c.23.05.93.2.93.9S115.15,28.81,114.3,28.81Z"/><path id="Trazado_13717" data-name="Trazado 13717" class="cls-1" d="M118.3,26.12a.09.09,0,0,1-.09.09h-.76a.07.07,0,0,0-.08.08h0v2.36a.08.08,0,0,1-.08.08h-.52a.07.07,0,0,1-.08-.08V26.29a.09.09,0,0,0-.09-.08h-.76a.08.08,0,0,1-.08-.09h0v-.4a.08.08,0,0,1,.08-.09h2.38a.09.09,0,0,1,.08.09Z"/><path id="Trazado_13718" data-name="Trazado 13718" class="cls-1" d="M123.1,28.81a1.14,1.14,0,0,1-1.31-1,.94.94,0,0,1,0-.29V25.72a.08.08,0,0,1,.08-.09h.52a.09.09,0,0,1,.08.09v1.84c0,.34.09.68.64.68s.64-.22.64-.68V25.72a.09.09,0,0,1,.08-.09h.52a.08.08,0,0,1,.08.08h0v1.84a1.16,1.16,0,0,1-1,1.26A1.22,1.22,0,0,1,123.1,28.81Z"/><path id="Trazado_13719" data-name="Trazado 13719" class="cls-1" d="M125.23,28.75h-.83l.17-.15h.68c.58,0,1.24-.32,1.24-1.4,0-1.28-.82-1.39-1.28-1.39h-.7a.09.09,0,0,1-.09-.08h0a.09.09,0,0,1,.08-.08h.73a1.36,1.36,0,0,1,1.46,1.25,1.06,1.06,0,0,1,0,.31,1.38,1.38,0,0,1-1.2,1.55A1,1,0,0,1,125.23,28.75Z"/><path id="Trazado_13720" data-name="Trazado 13720" class="cls-1" d="M129.18,28.75h-2a.08.08,0,0,1-.08-.08h0v-3s0-.08.08-.08h1.94a.09.09,0,0,1,.08.08.09.09,0,0,1-.08.09h-1.75a.08.08,0,0,0-.08.08h0V27a.08.08,0,0,0,.08.09H129a.07.07,0,0,1,.08.08h0a.08.08,0,0,1-.08.08h-1.63a.09.09,0,0,0-.08.08h0v1.2a.08.08,0,0,0,.08.09h1.77a.08.08,0,0,1,.08.08.08.08,0,0,1-.07.09Z"/><path id="Trazado_13721" data-name="Trazado 13721" class="cls-1" d="M131,28.83a1.5,1.5,0,0,1-1.5-1.49c0-.05,0-.1,0-.15a1.48,1.48,0,0,1,1.34-1.62H131a1.19,1.19,0,0,1,1.24.9.09.09,0,0,1-.07.1h0a.08.08,0,0,1-.07-.07,1,1,0,0,0-1.06-.77,1.32,1.32,0,0,0-1.3,1.36v.11a1.34,1.34,0,0,0,1.19,1.46H131a1.16,1.16,0,0,0,1.11-1s0-.08.08-.08h0a.09.09,0,0,1,.08.08v0A1.34,1.34,0,0,1,131,28.83Z"/><path id="Trazado_13722" data-name="Trazado 13722" class="cls-1" d="M98.93,26.06a.27.27,0,0,0-.22-.12,1.1,1.1,0,0,0-.26.06,1.24,1.24,0,0,0-.32.23c0,.05-.22.24-.51.58l-.5.67.39-1.24c.09-.28.15-.46.17-.55l.26-.82c.14-.41.21-.63.22-.67l-.45,0a2.43,2.43,0,0,0-.38,0v.1h.06a.43.43,0,0,1,.27.06.16.16,0,0,1,.06.12.41.41,0,0,1,0,.19c-.07.19-.14.41-.22.67l-.68,2.05-.18.65a1.63,1.63,0,0,0-.08.44.34.34,0,0,0,.12.26.52.52,0,0,0,.32.11,1.34,1.34,0,0,0,.47-.14,2.75,2.75,0,0,0,.77-.5,3.1,3.1,0,0,0,.64-.89,2.07,2.07,0,0,0,.23-.94A.53.53,0,0,0,98.93,26.06Zm-.31.86a4.71,4.71,0,0,1-.36.75,4.32,4.32,0,0,1-.4.53,2.07,2.07,0,0,1-.54.48.36.36,0,0,1-.23.08.24.24,0,0,1-.16-.07.26.26,0,0,1-.07-.18,2.75,2.75,0,0,1,.32-.94,7.69,7.69,0,0,1,.61-.8,2.21,2.21,0,0,1,.52-.49.36.36,0,0,1,.2-.06.22.22,0,0,1,.17.06.23.23,0,0,1,.06.16A1.36,1.36,0,0,1,98.62,26.92Z"/><path id="Trazado_13723" data-name="Trazado 13723" class="cls-1" d="M134,25.56a1.48,1.48,0,0,0-1.5,1.48.76.76,0,0,0,0,.15,1.49,1.49,0,0,0,1.34,1.63H134a1.49,1.49,0,0,0,1.49-1.49.76.76,0,0,0,0-.15,1.49,1.49,0,0,0-1.33-1.63Zm0,3.1a1.34,1.34,0,0,1-1.31-1.36.41.41,0,0,1,0-.11,1.32,1.32,0,0,1,1.19-1.46H134a1.34,1.34,0,0,1,1.3,1.36s0,.07,0,.11a1.32,1.32,0,0,1-1.18,1.46Z"/><g id="Grupo_4824" data-name="Grupo 4824"><path id="Trazado_13724" data-name="Trazado 13724" class="cls-1" d="M14.51,7.14A.53.53,0,0,1,14,6.76,4.33,4.33,0,0,0,9.75,3.67c-3.92,0-5.39,3.33-5.39,6.8,0,3.3,1.47,6.64,5.39,6.64,2.51,0,4-1.63,4.43-4a.53.53,0,0,1,.52-.45h3.17a.52.52,0,0,1,.53.52v.07a8.33,8.33,0,0,1-8.65,7.52C3.61,20.77,0,16.19,0,10.47,0,4.58,3.61,0,9.75,0c4.15,0,7.67,2.32,8.45,6.5a.53.53,0,0,1-.42.63H14.51Z"/><path id="Trazado_13725" data-name="Trazado 13725" class="cls-1" d="M30.32,17.11c3.92,0,5.39-3.33,5.39-6.64,0-3.47-1.47-6.8-5.39-6.8S24.93,7,24.93,10.47c0,3.31,1.48,6.64,5.39,6.64M30.32,0c6.14,0,9.75,4.59,9.75,10.47,0,5.72-3.61,10.3-9.75,10.3s-9.74-4.58-9.74-10.3C20.58,4.59,24.19,0,30.32,0"/><path id="Trazado_13726" data-name="Trazado 13726" class="cls-1" d="M43.57.47h3.51a.55.55,0,0,1,.45.25l8.12,13.05h.06V1a.53.53,0,0,1,.53-.53h3a.53.53,0,0,1,.53.53h0V19.77a.53.53,0,0,1-.53.53H55.73a.53.53,0,0,1-.46-.25L47.18,7h0V19.77a.53.53,0,0,1-.53.53h-3a.53.53,0,0,1-.53-.53V1a.53.53,0,0,1,.53-.53"/><path id="Trazado_13727" data-name="Trazado 13727" class="cls-1" d="M66.09,13.72a.54.54,0,0,1,.53.46c.22,2.3,2.17,3.21,4.36,3.21,1.53,0,3.86-.45,3.86-2.47s-3-2.5-5.88-3.28S63,9.72,63,6c0-4,3.83-6,7.41-6,4,0,7.63,1.66,7.93,5.84a.53.53,0,0,1-.5.55H74.65A.52.52,0,0,1,74.13,6c-.31-2-1.92-2.56-3.87-2.56-1.39,0-3,.58-3,2.25s.94,1.72,5.91,3c1.44.36,5.89,1.27,5.89,5.77,0,3.64-2.86,6.36-8.25,6.36-4.22,0-8.19-2-8.43-6.51a.53.53,0,0,1,.51-.54h3.2Z"/><path id="Trazado_13728" data-name="Trazado 13728" class="cls-1" d="M85.5,4.14H80.62a.53.53,0,0,1-.53-.53V1a.53.53,0,0,1,.53-.53H95.8a.51.51,0,0,1,.53.52h0v2.6a.53.53,0,0,1-.53.53H90.92a.53.53,0,0,0-.53.53h0v15.1a.53.53,0,0,1-.53.53h-3.3a.53.53,0,0,1-.53-.53h0V4.67a.53.53,0,0,0-.53-.53h0"/><path id="Trazado_13729" data-name="Trazado 13729" class="cls-1" d="M103,8.92a.52.52,0,0,0,.53.52h4.25c1.94,0,3-.83,3-2.83s-1.06-2.75-3-2.75H103.5a.53.53,0,0,0-.53.53h0ZM98.61,1a.52.52,0,0,1,.53-.52H109.3a5.44,5.44,0,0,1,5.79,5.08c0,.13,0,.26,0,.39a4.88,4.88,0,0,1-3.14,5V11c2.14.56,2.75,2.64,2.89,4.64a16.33,16.33,0,0,0,.49,4,.53.53,0,0,1-.32.67.57.57,0,0,1-.18,0H111.7a.52.52,0,0,1-.5-.35,29.59,29.59,0,0,1-.57-4.4c-.3-2.08-1.11-3-3.3-3H103.5a.53.53,0,0,0-.53.53h0v6.69a.53.53,0,0,1-.53.53h-3.3a.53.53,0,0,1-.53-.53Z"/><path id="Trazado_13730" data-name="Trazado 13730" class="cls-1" d="M135.49,12.81c0,5.36-3.16,8-8.47,8s-8.44-2.59-8.44-8V1a.52.52,0,0,1,.53-.53h3.3a.53.53,0,0,1,.53.53v11.8c0,2.16.55,4.3,4.08,4.3,3.11,0,4.11-1.37,4.11-4.3V1a.53.53,0,0,1,.53-.53H135a.53.53,0,0,1,.53.53h0Z"/></g><path id="Trazado_13731" data-name="Trazado 13731" class="cls-1" d="M108,25.56A1.5,1.5,0,0,0,106.44,27a1,1,0,0,0,0,.17,1.48,1.48,0,0,0,1.38,1.6H108a1.51,1.51,0,0,0,1.53-1.47V27.2a1.52,1.52,0,0,0-1.36-1.64Zm0,2.68c-.61,0-.84-.53-.84-1s.23-1.07.84-1.07.84.52.84,1.07-.23,1-.84,1Z"/><path id="Trazado_13732" data-name="Trazado 13732" class="cls-1" d="M121.19,28c0-.31-.11-.64-.45-.72h0a.76.76,0,0,0,.49-.78.85.85,0,0,0-.85-.86h-1.64a.09.09,0,0,0-.09.09h0v2.93a.08.08,0,0,0,.09.08h.51a.07.07,0,0,0,.08-.08h0v-1a.09.09,0,0,1,.09-.09h.6c.34,0,.46.15.51.47s0,.46.09.69a.09.09,0,0,0,.08.06h.49a.08.08,0,0,0,.08-.09v0A2.72,2.72,0,0,1,121.19,28Zm-1.11-1h-.66a.09.09,0,0,1-.09-.09v-.7a.09.09,0,0,1,.09-.09h.66c.3,0,.47.13.47.43s-.16.45-.47.45Z"/></g></g></svg>