<svg xmlns="http://www.w3.org/2000/svg" viewBox="0 0 92.05 34.25"><defs><style>.cls-1{fill:#fff;}</style></defs><g id="Capa_2" data-name="Capa 2"><g id="Capa_1-2" data-name="Capa 1"><g id="Grupo_4820" data-name="Grupo 4820"><path id="Trazado_13696" data-name="Trazado 13696" class="cls-1" d="M.23.62H7c9.26,0,12,6.33,12,12.88,0,7.31-3.74,13-12,13H0l1.65-1.38H7c4.82,0,10.3-2.64,10.3-11.57C17.34,2.93,10.56,2,6.71,2H.23Z"/><path id="Trazado_13697" data-name="Trazado 13697" class="cls-1" d="M40.29,25.07v1.38H22.68V.62H40.11V2H24.28V12.34H39.16v1.37H24.28V25.07Z"/><path id="Trazado_13698" data-name="Trazado 13698" class="cls-1" d="M63.19,8.32C62.5,4,58.69,1.38,54.37,1.38c-6.79,0-10.74,5.53-10.74,12.15s3.95,12.16,10.74,12.16c5.05,0,9-4.49,9.26-9.3h1.6c-.58,6.15-5.16,10.67-10.86,10.67-7.77,0-12.34-6-12.34-13.53S46.6,0,54.37,0C63.56,0,64.76,8,64.8,8.32Z"/><path id="Trazado_13699" data-name="Trazado 13699" class="cls-1" d="M79.75,25.68c6.75,0,10.71-5.53,10.71-12.15S86.5,1.37,79.75,1.37,69,6.91,69,13.53,73,25.68,79.75,25.68m0,1.38c-7.77,0-12.35-6-12.35-13.53S72,0,79.75,0s12.3,6,12.3,13.53-4.57,13.53-12.3,13.53"/></g><g id="Grupo_4822" data-name="Grupo 4822"><path id="Trazado_13700" data-name="Trazado 13700" class="cls-1" d="M64.42,31a.08.08,0,0,1-.07,0,.55.55,0,0,0-.55-.4c-.52,0-.7.43-.7.89s.19.86.7.86a.57.57,0,0,0,.58-.52.06.06,0,0,1,.06-.06h.42a.07.07,0,0,1,.07.07h0a1.08,1.08,0,0,1-1.13,1,1.24,1.24,0,0,1-1.28-1.22v-.13a1.26,1.26,0,0,1,1.14-1.36h.14a1.05,1.05,0,0,1,1.1.85.07.07,0,0,1-.05.09h-.43Z"/><path id="Trazado_13701" data-name="Trazado 13701" class="cls-1" d="M66.49,30.08a1.26,1.26,0,0,1,1.28,1.24v.13a1.25,1.25,0,0,1-1.16,1.34h-.12a1.27,1.27,0,0,1-1.28-1.23v-.12a1.27,1.27,0,0,1,1.14-1.37h.14m0,2.24c.51,0,.7-.44.7-.87s-.19-.89-.7-.89-.71.44-.71.89.2.87.71.87"/><path id="Trazado_13702" data-name="Trazado 13702" class="cls-1" d="M68.22,30.14h.46a.06.06,0,0,1,.06,0l1.06,1.71h0V30.21a.07.07,0,0,1,.07-.07h.4a.07.07,0,0,1,.07.07v2.46a.08.08,0,0,1-.07.07h-.46a.07.07,0,0,1-.06,0L68.7,31h0v1.67a.07.07,0,0,1-.07.07h-.4s-.07,0-.07-.06h0V30.22a.07.07,0,0,1,.07-.07h0"/><path id="Trazado_13703" data-name="Trazado 13703" class="cls-1" d="M71.17,31.88s.06,0,.07.05c0,.3.28.43.57.43s.5-.06.5-.33-.39-.33-.77-.43-.77-.25-.77-.73.5-.79,1-.79,1,.22,1,.76c0,0,0,.07-.06.08h-.42a.07.07,0,0,1-.07-.06c0-.26-.25-.34-.51-.34s-.39.08-.39.3.12.22.77.39c.19.05.77.17.77.76s-.37.83-1.08.83c-.55,0-1.07-.26-1.1-.85a.07.07,0,0,1,.07-.07h.42Z"/><path id="Trazado_13704" data-name="Trazado 13704" class="cls-1" d="M73.71,30.62h-.64a.07.07,0,0,1-.07-.06h0v-.35a.08.08,0,0,1,.07-.07h2a.08.08,0,0,1,.07.07v.35a.07.07,0,0,1-.07.06h-.64a.08.08,0,0,0-.07.07v2a.07.07,0,0,1-.07.07h-.43a.07.07,0,0,1-.07-.07h0v-2a.08.08,0,0,0-.07-.07"/><path id="Trazado_13705" data-name="Trazado 13705" class="cls-1" d="M75.42,30.21a.07.07,0,0,1,.07-.07h1.33a.72.72,0,0,1,.76.67v.05a.64.64,0,0,1-.41.65h0c.28.07.36.34.38.6a2.24,2.24,0,0,0,.06.52.08.08,0,0,1,0,.09h-.44s0,0-.06-.05a3.68,3.68,0,0,1-.08-.58c0-.27-.14-.39-.43-.39h-.5a.07.07,0,0,0-.07.07v.88a.06.06,0,0,1-.06.06h-.44a.07.07,0,0,1-.07-.06h0Zm.57,1a.07.07,0,0,0,.07.06h.56c.25,0,.39-.1.39-.36s-.14-.37-.39-.37h-.56a.08.08,0,0,0-.07.07Z"/><path id="Trazado_13706" data-name="Trazado 13706" class="cls-1" d="M80.25,31.76a1,1,0,0,1-.88,1.05h-.23c-.7,0-1.1-.34-1.1-1V30.21a.07.07,0,0,1,.07-.07h.43a.07.07,0,0,1,.07.07v1.55c0,.28.07.56.53.56s.54-.18.54-.56V30.21a.07.07,0,0,1,.07-.07h.43a.07.07,0,0,1,.07.07Z"/><path id="Trazado_13707" data-name="Trazado 13707" class="cls-1" d="M80.25,30.21a.07.07,0,0,1,.07-.07h.61a1.14,1.14,0,0,1,1.22,1.05,1,1,0,0,1,0,.25,1.16,1.16,0,0,1-1,1.3h-.91l.15-.12,0,0h.52a1,1,0,0,0,1-1,1.34,1.34,0,0,0,0-.2c0-1.07-.68-1.16-1.07-1.16h-.59a.07.07,0,0,1-.07-.07h0"/><path id="Trazado_13708" data-name="Trazado 13708" class="cls-1" d="M84.3,32.68h0a.07.07,0,0,1-.07.07H82.59a.07.07,0,0,1-.07-.07V30.21a.07.07,0,0,1,.07-.07h1.63a.07.07,0,0,1,0,.14H82.75a.07.07,0,0,0-.07.07h0v.91s0,.06.07.07h1.37a.06.06,0,0,1,.07.06h0a.07.07,0,0,1-.07.07H82.75a.08.08,0,0,0-.07.07v1a.07.07,0,0,0,.07.07h1.48a.07.07,0,0,1,.07.07"/><path id="Trazado_13709" data-name="Trazado 13709" class="cls-1" d="M86.67,30.92a.07.07,0,0,1-.07-.06.86.86,0,0,0-.88-.64,1.1,1.1,0,0,0-1.09,1.14v.09a1.12,1.12,0,0,0,1,1.22h.09a1,1,0,0,0,.93-.88s0-.06.07-.06h0a.07.07,0,0,1,.07.07h0a1.12,1.12,0,0,1-1.09,1,1.24,1.24,0,0,1-1.25-1.24v-.12a1.26,1.26,0,0,1,1.13-1.37h.12a1,1,0,0,1,1,.75.09.09,0,0,1-.05.09h0Z"/><path id="Trazado_13710" data-name="Trazado 13710" class="cls-1" d="M88.28,32.81A1.24,1.24,0,0,1,87,31.57a.49.49,0,0,1,0-.12,1.25,1.25,0,0,1,1.12-1.37h.12a1.25,1.25,0,0,1,1.25,1.24v.13a1.26,1.26,0,0,1-1.12,1.36h-.13m0-.14a1.1,1.1,0,0,0,1.09-1.14.25.25,0,0,0,0-.08,1.11,1.11,0,0,0-1-1.23h-.09a1.12,1.12,0,0,0-1.09,1.14.28.28,0,0,0,0,.09,1.11,1.11,0,0,0,1,1.22h.09"/><g id="Grupo_4821" data-name="Grupo 4821"><path id="Trazado_13711" data-name="Trazado 13711" class="cls-1" d="M57.88,29.17a.46.46,0,0,0-.23-.05h0V29a1.73,1.73,0,0,1,.32,0l.37,0s-.06.22-.18.56l-.21.68q0,.11-.15.45l-.32,1,.41-.55a5.59,5.59,0,0,1,.42-.48,1,1,0,0,1,.28-.19.46.46,0,0,1,.21,0,.26.26,0,0,1,.19.1.43.43,0,0,1,.1.31,1.76,1.76,0,0,1-.19.78,2.72,2.72,0,0,1-.53.74,2.41,2.41,0,0,1-.64.41,1,1,0,0,1-.4.11.35.35,0,0,1-.26-.08.31.31,0,0,1-.09-.22,1.19,1.19,0,0,1,.06-.37l.15-.53.56-1.7c.07-.21.13-.4.19-.55a.45.45,0,0,0,0-.16A.16.16,0,0,0,57.88,29.17Zm-.47,3.6a.31.31,0,0,0,.19-.06,1.68,1.68,0,0,0,.44-.4,2.79,2.79,0,0,0,.34-.43,4.6,4.6,0,0,0,.31-.63,1.37,1.37,0,0,0,.09-.4.19.19,0,0,0-.05-.13.24.24,0,0,0-.14,0,.34.34,0,0,0-.17,0,1.87,1.87,0,0,0-.43.41,6.94,6.94,0,0,0-.51.67,2,2,0,0,0-.19.44,1.76,1.76,0,0,0-.07.33.27.27,0,0,0,.05.15.16.16,0,0,0,.14.05Z"/><path id="Trazado_13712" data-name="Trazado 13712" class="cls-1" d="M58.14,34a.22.22,0,0,0,.1.09l.15,0a1.19,1.19,0,0,0,.36-.09,1.11,1.11,0,0,0,.3-.17,2.65,2.65,0,0,0,.42-.4,1.54,1.54,0,0,0,.23-.39,2.4,2.4,0,0,0,.13-.59,4.18,4.18,0,0,0,.05-.61c0-.1,0-.28,0-.55a1.64,1.64,0,0,0,0-.38.29.29,0,0,0-.08-.14.08.08,0,0,0-.07,0,.14.14,0,0,0-.11.06,1.31,1.31,0,0,0-.2.47h0a.11.11,0,0,1-.08,0,3.68,3.68,0,0,1,.15-.47,1.35,1.35,0,0,1,.15-.26l.14-.08h.07c.11,0,.2.07.27.22a1.87,1.87,0,0,1,.13.81c0,.16,0,.35,0,.58a4.46,4.46,0,0,1-.07.51c0,.16,0,.26,0,.29l0,0a5.64,5.64,0,0,0,.31-.53,2.62,2.62,0,0,0,.19-.46,4.75,4.75,0,0,0,.14-.54,2.22,2.22,0,0,0,0-.37V30.8s0-.07,0-.08a.36.36,0,0,1,0-.21.14.14,0,0,1,.21,0,.18.18,0,0,1,0,.13,3.48,3.48,0,0,1-.17.69,5.08,5.08,0,0,1-.46,1.17,5.38,5.38,0,0,1-.84,1.12,2.16,2.16,0,0,1-.67.48,1.52,1.52,0,0,1-.6.15,1,1,0,0,1-.47-.09.24.24,0,0,1-.12-.18.13.13,0,0,1,0-.1.18.18,0,0,1,.1,0,.47.47,0,0,1,.17,0Z"/></g></g></g></g></svg>